ply
format ascii 1.0
comment Created in Blender version 4.0.2
element vertex 348
property float x
property float y
property float z
property float nx
property float ny
property float nz
property float s
property float t
element face 540
property list uchar uint vertex_indices
end_header
-10 0 8.75 0 1 0 0.79999995 0.75
-8.75 0 10 0 1 0 0.75 0.79999995
-8.75 0 8.75 0 1 0 0.75 0.75
0 0 8.75 0 1 0 0.39999998 0.75
1.25 0 10 0 1 0 0.35 0.79999995
1.25 0 8.75 0 1 0 0.35 0.75
0 0 -1.25 0 1 0 0.39999998 0.35
1.25 0 0 0 1 0 0.35 0.39999998
1.25 0 -1.25 0 1 0 0.35 0.35
-10 0 -1.25 0 1 0 0.79999995 0.35
-8.75 0 0 0 1 0 0.75 0.39999998
-8.75 0 -1.25 0 1 0 0.75 0.35
-5 0 -1.25 0 1 0 0.59999996 0.35
-3.75 0 0 0 1 0 0.55 0.39999998
-3.75 0 -1.25 0 1 0 0.55 0.35
-5 0 -6.25 0 1 0 0.59999996 0.14999999
-3.75 0 -5 0 1 0 0.55 0.19999999
-3.75 0 -6.25 0 1 0 0.55 0.14999999
-10 0 -6.25 0 1 0 0.79999995 0.14999999
-8.75 0 -5 0 1 0 0.75 0.19999999
-8.75 0 -6.25 0 1 0 0.75 0.14999999
5 0 -1.25 0 1 0 0.19999999 0.35
6.25 0 0 0 1 0 0.14999999 0.39999998
6.25 0 -1.25 0 1 0 0.14999999 0.35
5 0 -6.25 0 1 0 0.19999999 0.14999999
6.25 0 -5 0 1 0 0.14999999 0.19999999
6.25 0 -6.25 0 1 0 0.14999999 0.14999999
0 0 -6.25 0 1 0 0.39999998 0.14999999
1.25 0 -5 0 1 0 0.35 0.19999999
1.25 0 -6.25 0 1 0 0.35 0.14999999
5 0 8.75 0 1 0 0.19999999 0.75
6.25 0 10 0 1 0 0.14999999 0.79999995
6.25 0 8.75 0 1 0 0.14999999 0.75
0 0 3.75 0 1 0 0.39999998 0.55
1.25 0 5 0 1 0 0.35 0.59999996
1.25 0 3.75 0 1 0 0.35 0.55
-5 0 8.75 0 1 0 0.59999996 0.75
-3.75 0 10 0 1 0 0.55 0.79999995
-3.75 0 8.75 0 1 0 0.55 0.75
-5 0 3.75 0 1 0 0.59999996 0.55
-3.75 0 5 0 1 0 0.55 0.59999996
-3.75 0 3.75 0 1 0 0.55 0.55
-10 0 3.75 0 1 0 0.79999995 0.55
-8.75 0 5 0 1 0 0.75 0.59999996
-8.75 0 3.75 0 1 0 0.75 0.55
-7.5 0 3.75 0 1 0 0.7 0.55
-6.25 0 5 0 1 0 0.65 0.59999996
-6.25 0 3.75 0 1 0 0.65 0.55
-7.5 0 1.25 0 1 0 0.7 0.45
-6.25 0 2.5 0 1 0 0.65 0.5
-6.25 0 1.25 0 1 0 0.65 0.45
-10 0 1.25 0 1 0 0.79999995 0.45
-8.75 0 2.5 0 1 0 0.75 0.5
-8.75 0 1.25 0 1 0 0.75 0.45
-2.5 0 3.75 0 1 0 0.5 0.55
-1.25 0 5 0 1 0 0.45 0.59999996
-1.25 0 3.75 0 1 0 0.45 0.55
-2.5 0 1.25 0 1 0 0.5 0.45
-1.25 0 2.5 0 1 0 0.45 0.5
-1.25 0 1.25 0 1 0 0.45 0.45
-5 0 1.25 0 1 0 0.59999996 0.45
-3.75 0 2.5 0 1 0 0.55 0.5
-3.75 0 1.25 0 1 0 0.55 0.45
-2.5 0 8.75 0 1 0 0.5 0.75
-1.25 0 10 0 1 0 0.45 0.79999995
-1.25 0 8.75 0 1 0 0.45 0.75
-2.5 0 6.25 0 1 0 0.5 0.65
-1.25 0 7.5 0 1 0 0.45 0.7
-1.25 0 6.25 0 1 0 0.45 0.65
-5 0 6.25 0 1 0 0.59999996 0.65
-3.75 0 7.5 0 1 0 0.55 0.7
-3.75 0 6.25 0 1 0 0.55 0.65
2.5 0 1.25 0 1 0 0.29999998 0.45
3.75 0 2.5 0 1 0 0.25 0.5
3.75 0 1.25 0 1 0 0.25 0.45
0 0 1.25 0 1 0 0.39999998 0.45
1.25 0 2.5 0 1 0 0.35 0.5
1.25 0 1.25 0 1 0 0.35 0.45
7.5 0 3.75 0.3015114 0.90453404 -0.30151138 0.099999994 0.55
8.75 0 5 0 1 0 0.049999997 0.59999996
8.75 0 3.75 0 1 0 0.049999997 0.55
7.5 0 1.25 0 1 0 0.099999994 0.45
8.75 0 2.5 0 1 0 0.049999997 0.5
8.75 0 1.25 0 1 0 0.049999997 0.45
5 0 1.25 0 1 0 0.19999999 0.45
6.25 0 2.5 0 1 0 0.14999999 0.5
6.25 0 1.25 0 1 0 0.14999999 0.45
7.5 0 8.75 0 1 0 0.099999994 0.75
8.75 0 10 0 1 0 0.049999997 0.79999995
8.75 0 8.75 0 1 0 0.049999997 0.75
7.5 0 6.25 0.70710677 0.7071067 0 0.099999994 0.65
8.75 0 7.5 0 1 0 0.049999997 0.7
8.75 0 6.25 0 1 0 0.049999997 0.65
7.5 0 6.25 0.70710677 0.7071067 0 0.5 1
7.5 5 7.5 0.5773503 0.5773502 0.5773503 0.55 0.79999995
7.5 0 7.5 0.30151135 0.90453404 0.30151138 0.55 1
2.5 0 -6.25 0 1 0 0.29999998 0.14999999
3.75 0 -5 0 1 0 0.25 0.19999999
3.75 0 -6.25 0 1 0 0.25 0.14999999
2.5 0 -8.75 0 1 0 0.29999998 0.049999997
3.75 0 -7.5 0 1 0 0.25 0.099999994
3.75 0 -8.75 0 1 0 0.25 0.049999997
0 0 -8.75 0 1 0 0.39999998 0.049999997
1.25 0 -7.5 0 1 0 0.35 0.099999994
1.25 0 -8.75 0 1 0 0.35 0.049999997
7.5 0 -6.25 0 1 0 0.099999994 0.14999999
8.75 0 -5 0 1 0 0.049999997 0.19999999
8.75 0 -6.25 0 1 0 0.049999997 0.14999999
7.5 0 -8.75 0 1 0 0.099999994 0.049999997
8.75 0 -7.5 0 1 0 0.049999997 0.099999994
8.75 0 -8.75 0 1 0 0.049999997 0.049999997
5 0 -8.75 0 1 0 0.19999999 0.049999997
6.25 0 -7.5 0 1 0 0.14999999 0.099999994
6.25 0 -8.75 0 1 0 0.14999999 0.049999997
7.5 0 -1.25 0 1 0 0.099999994 0.35
8.75 0 0 0 1 0 0.049999997 0.39999998
8.75 0 -1.25 0 1 0 0.049999997 0.35
7.5 0 -3.75 0 1 0 0.099999994 0.25
8.75 0 -2.5 0 1 0 0.049999997 0.29999998
8.75 0 -3.75 0 1 0 0.049999997 0.25
5 0 -3.75 0 1 0 0.19999999 0.25
6.25 0 -2.5 0 1 0 0.14999999 0.29999998
6.25 0 -3.75 0 1 0 0.14999999 0.25
-7.5 0 -6.25 -0.3015113 0.90453404 0.30151138 0.7 0.14999999
-6.25 0 -5 0 1 0 0.65 0.19999999
-6.25 0 -6.25 0.30151135 0.90453404 0.30151126 0.65 0.14999999
-7.5 0 -8.75 0 1 0 0.7 0.049999997
-6.25 0 -7.5 0.3015113 0.90453404 -0.30151138 0.65 0.099999994
-6.25 0 -8.75 0 1 0 0.65 0.049999997
-10 0 -8.75 0 1 0 0.79999995 0.049999997
-8.75 0 -7.5 0 1 0 0.75 0.099999994
-8.75 0 -8.75 0 1 0 0.75 0.049999997
-2.5 0 -6.25 0 1 0 0.5 0.14999999
-1.25 0 -5 0 1 0 0.45 0.19999999
-1.25 0 -6.25 0 1 0 0.45 0.14999999
-2.5 0 -8.75 0 1 0 0.5 0.049999997
-1.25 0 -7.5 0 1 0 0.45 0.099999994
-1.25 0 -8.75 0 1 0 0.45 0.049999997
-5 0 -8.75 0 1 0 0.59999996 0.049999997
-3.75 0 -7.5 0 1 0 0.55 0.099999994
-3.75 0 -8.75 0 1 0 0.55 0.049999997
-2.5 0 -1.25 0 1 0 0.5 0.35
-1.25 0 0 0 1 0 0.45 0.39999998
-1.25 0 -1.25 0 1 0 0.45 0.35
-2.5 0 -3.75 0 1 0 0.5 0.25
-1.25 0 -2.5 0 1 0 0.45 0.29999998
-1.25 0 -3.75 0 1 0 0.45 0.25
-5 0 -3.75 0 1 0 0.59999996 0.25
-3.75 0 -2.5 0 1 0 0.55 0.29999998
-3.75 0 -3.75 0 1 0 0.55 0.25
-7.5 0 -1.25 0 1 0 0.7 0.35
-6.25 0 0 0 1 0 0.65 0.39999998
-6.25 0 -1.25 0 1 0 0.65 0.35
-7.5 0 -3.75 0 1 0 0.7 0.25
-6.25 0 -2.5 0 1 0 0.65 0.29999998
-6.25 0 -3.75 0 1 0 0.65 0.25
-10 0 -3.75 0 1 0 0.79999995 0.25
-8.75 0 -2.5 0 1 0 0.75 0.29999998
-8.75 0 -3.75 0 1 0 0.75 0.25
2.5 0 -1.25 0 1 0 0.29999998 0.35
3.75 0 0 0 1 0 0.25 0.39999998
3.75 0 -1.25 0 1 0 0.25 0.35
2.5 0 -3.75 0 1 0 0.29999998 0.25
3.75 0 -2.5 0 1 0 0.25 0.29999998
3.75 0 -3.75 0 1 0 0.25 0.25
0 0 -3.75 0 1 0 0.39999998 0.25
1.25 0 -2.5 0 1 0 0.35 0.29999998
1.25 0 -3.75 0 1 0 0.35 0.25
2.5 0 8.75 0 1 0 0.29999998 0.75
3.75 0 10 0 1 0 0.25 0.79999995
3.75 0 8.75 0 1 0 0.25 0.75
0 0 6.25 0 1 0 0.39999998 0.65
1.25 0 7.5 0 1 0 0.35 0.7
1.25 0 6.25 0 1 0 0.35 0.65
-7.5 0 8.75 0 1 0 0.7 0.75
-6.25 0 10 0 1 0 0.65 0.79999995
-6.25 0 8.75 0 1 0 0.65 0.75
-7.5 0 6.25 0 1 0 0.7 0.65
-6.25 0 7.5 0 1 0 0.65 0.7
-6.25 0 6.25 0 1 0 0.65 0.65
-10 0 6.25 0 1 0 0.79999995 0.65
-8.75 0 7.5 0 1 0 0.75 0.7
-8.75 0 6.25 0 1 0 0.75 0.65
-7.5 0 7.5 0 1 0 0.7 0.7
-7.5 0 5 0 1 0 0.7 0.59999996
-10 0 5 0 1 0 0.79999995 0.59999996
-5 0 7.5 0 1 0 0.59999996 0.7
-5 0 5 0 1 0 0.59999996 0.59999996
-5 0 10 0 1 0 0.59999996 0.79999995
2.5 0 7.5 -0.27812034 0.9295697 0.2419698 0.29999998 0.7
2.5 0 6.25 -0.61541224 0.78820544 0 0.29999998 0.65
2.5 0 5 -0.61541224 0.78820544 0 0.29999998 0.59999996
0 0 5 0 1 0 0.39999998 0.59999996
6.25 0 7.5 0 0.7071067 0.70710677 0.049999997 1
5 5 7.5 0 0.7071067 0.7071068 0.099999994 0.79999995
5 0 7.5 0 0.7071067 0.70710677 0.099999994 1
3.75 5 7.5 -0.49628288 0.63562745 0.5913383 0.14999999 0.79999995
3.75 0 7.5 0 0.7071067 0.70710677 0.14999999 1
5 0 10 0 1 0 0.19999999 0.79999995
3.75 0 7.5 0 0.7071067 0.70710677 0.25 0.7
5 0 7.5 0 0.7071067 0.70710677 0.19999999 0.7
2.5 0 -2.5 0 1 0 0.29999998 0.29999998
2.5 0 -5 0 1 0 0.29999998 0.19999999
0 0 -5 0 1 0 0.39999998 0.19999999
5 0 -2.5 0 1 0 0.19999999 0.29999998
5 0 -5 0 1 0 0.19999999 0.19999999
5 0 0 0 1 0 0.19999999 0.39999998
-7.5 0 -2.5 0 1 0 0.7 0.29999998
-7.5 0 -5 0 1 0 0.7 0.19999999
-10 0 -5 0 1 0 0.79999995 0.19999999
-5 0 -2.5 0 1 0 0.59999996 0.29999998
-5 0 -5 0 1 0 0.59999996 0.19999999
-5 0 0 0 1 0 0.59999996 0.39999998
-2.5 0 -2.5 0 1 0 0.5 0.29999998
-2.5 0 -5 0 1 0 0.5 0.19999999
0 0 -2.5 0 1 0 0.39999998 0.29999998
0 0 0 0 1 0 0.39999998 0.39999998
-2.5 0 -7.5 0 1 0 0.5 0.099999994
-3.75 0 -10 0 1 0 0.55 0
-2.5 0 -10 0 1 0 0.5 0
-5 0 -10 0 1 0 0.59999996 0
0 0 -7.5 0 1 0 0.39999998 0.099999994
-1.25 0 -10 0 1 0 0.45 0
0 0 -10 0 1 0 0.39999998 0
-7.5 0 -7.5 -0.30151135 0.90453404 -0.30151126 0.7 0.099999994
-8.75 0 -10 0 1 0 0.75 0
-7.5 0 -10 0 1 0 0.7 0
-10 0 -10 0 1 0 0.79999995 0
-5 0 -7.5 0 1 0 0.59999996 0.099999994
-6.25 0 -10 0 1 0 0.65 0
-7.5 0 -7.5 -0.30151135 0.90453404 -0.30151126 0.79999995 0.39999998
-6.25 10 -7.5 0.5773504 0.5773504 -0.5773502 0.84999996 0
-6.25 0 -7.5 0.3015113 0.90453404 -0.30151138 0.84999996 0.39999998
7.5 0 -2.5 0 1 0 0.099999994 0.29999998
7.5 0 -5 0 1 0 0.099999994 0.19999999
10 0 -2.5 0 1 0 0 0.29999998
10 0 -3.75 0 1 0 0 0.25
10 0 -5 0 1 0 0 0.19999999
10 0 0 0 1 0 0 0.39999998
10 0 -1.25 0 1 0 0 0.35
7.5 0 -7.5 0 1 0 0.099999994 0.099999994
6.25 0 -10 0 1 0 0.14999999 0
7.5 0 -10 0 1 0 0.099999994 0
5 0 -10 0 1 0 0.19999999 0
10 0 -7.5 0 1 0 0 0.099999994
10 0 -8.75 0 1 0 0 0.049999997
8.75 0 -10 0 1 0 0.049999997 0
10 0 -10 0 1 0 0 0
10 0 -6.25 0 1 0 0 0.14999999
2.5 0 -7.5 0 1 0 0.29999998 0.099999994
1.25 0 -10 0 1 0 0.35 0
2.5 0 -10 0 1 0 0.29999998 0
5 0 -7.5 0 1 0 0.19999999 0.099999994
3.75 0 -10 0 1 0 0.25 0
6.25 0 3.75 0 0.7071067 -0.70710677 0.35 1
7.5 5 3.75 0.5773502 0.5773502 -0.57735026 0.39999998 0.79999995
7.5 0 3.75 0.3015114 0.90453404 -0.30151138 0.39999998 1
10 0 7.5 0 1 0 0 0.7
10 0 6.25 0 1 0 0 0.65
10 0 5 0 1 0 0 0.59999996
7.5 0 5 0.70710677 0.7071067 0 0.099999994 0.59999996
10 0 10 0 1 0 0 0.79999995
10 0 8.75 0 1 0 0 0.75
7.5 0 7.5 0.30151135 0.90453404 0.30151138 0.099999994 0.7
7.5 0 2.5 0 1 0 0.099999994 0.5
7.5 0 0 0 1 0 0.099999994 0.39999998
10 0 2.5 0 1 0 0 0.5
10 0 1.25 0 1 0 0 0.45
10 0 3.75 0 1 0 0 0.55
2.5 0 2.5 0 1 0 0.29999998 0.5
2.5 0 0 0 1 0 0.29999998 0.39999998
5 0 2.5 0 1 0 0.19999999 0.5
7.5 0 7.5 0.30151135 0.90453404 0.30151138 0 1
6.25 5 7.5 0 0.7071067 0.7071068 0.049999997 0.79999995
5 0 3.75 0 0.7071067 -0.70710677 0.19999999 0.55
3.75 0 3.75 0 0.7071067 -0.70710677 0.25 0.55
-2.5 0 7.5 0 1 0 0.5 0.7
-2.5 0 5 0 1 0 0.5 0.59999996
0 0 7.5 0 1 0 0.39999998 0.7
0 0 10 0 1 0 0.39999998 0.79999995
-2.5 0 2.5 0 1 0 0.5 0.5
-2.5 0 0 0 1 0 0.5 0.39999998
0 0 2.5 0 1 0 0.39999998 0.5
-7.5 0 2.5 0 1 0 0.7 0.5
-7.5 0 0 0 1 0 0.7 0.39999998
-10 0 0 0 1 0 0.79999995 0.39999998
-5 0 2.5 0 1 0 0.59999996 0.5
-10 0 2.5 0 1 0 0.79999995 0.5
-2.5 0 10 0 1 0 0.5 0.79999995
2.5 0 3.75 -0.27812034 0.9295697 -0.2419698 0.29999998 0.55
7.5 5 5 0.7071068 0.7071067 0 0.45 0.79999995
7.5 0 5 0.70710677 0.7071067 0 0.45 1
6.25 0 3.75 0 0.7071067 -0.70710677 0.14999999 0.55
7.5 0 10 0 1 0 0.099999994 0.79999995
6.25 0 7.5 0 0.7071067 0.70710677 0.14999999 0.7
-10 0 -7.5 0 1 0 0.79999995 0.099999994
-10 0 -2.5 0 1 0 0.79999995 0.29999998
2.5 0 10 0 1 0 0.29999998 0.79999995
-7.5 0 10 0 1 0 0.7 0.79999995
-10 0 7.5 0 1 0 0.79999995 0.7
-7.5 10 -7.5 -0.5773502 0.57735026 -0.5773504 0.75 0.79999995
-6.25 10 -6.25 0.5773502 0.57735026 0.5773504 0.7 0.84999996
-6.25 10 -7.5 0.5773504 0.5773504 -0.5773502 0.7 0.79999995
-7.5 0 -6.25 -0.3015113 0.90453404 0.30151138 0.84999996 0.7932504
-7.5 10 -7.5 -0.5773502 0.57735026 -0.5773504 0.9 0.39999998
-7.5 0 -7.5 -0.30151135 0.90453404 -0.30151126 0.9 0.7932504
-6.25 0 -6.25 0.30151135 0.90453404 0.30151126 0.79999995 0.79999995
-7.5 10 -6.25 -0.5773504 0.5773504 0.5773502 0.84999996 0.39999998
-7.5 0 -6.25 -0.3015113 0.90453404 0.30151138 0.84999996 0.79999995
-6.25 10 -6.25 0.5773502 0.57735026 0.5773504 0.9 0
-6.25 0 -6.25 0.30151135 0.90453404 0.30151126 0.9 0.39999998
5 5 3.75 0 0.7071067 -0.7071068 0.65 0.79999995
6.25 5 5 0 1 0 0.59999996 0.84999996
6.25 5 3.75 0 0.7071067 -0.7071068 0.59999996 0.79999995
5 5 6.25 0 1 0 0.65 0.9
6.25 5 7.5 0 0.7071067 0.7071068 0.59999996 0.95
6.25 5 6.25 0 1 0 0.59999996 0.9
3.75 5 6.25 -0.61541224 0.78820544 0 0.7 0.9
5 5 7.5 0 0.7071067 0.7071068 0.65 0.95
3.75 5 5 -0.61541224 0.78820544 0 0.7 0.84999996
5 5 5 0 1 0 0.65 0.84999996
7.5 5 7.5 0.5773503 0.5773502 0.5773503 0.55 0.95
7.5 5 6.25 0.7071068 0.7071067 0 0.55 0.9
7.5 5 5 0.7071068 0.7071067 0 0.55 0.84999996
3.75 5 3.75 -0.49628296 0.63562745 -0.59133834 0.7 0.79999995
7.5 5 3.75 0.5773502 0.5773502 -0.57735026 0.55 0.79999995
5 0 3.75 0 0.7071067 -0.70710677 0.29999998 1
6.25 5 3.75 0 0.7071067 -0.7071068 0.35 0.79999995
3.75 0 3.75 0 0.7071067 -0.70710677 0.25 1
5 5 3.75 0 0.7071067 -0.7071068 0.29999998 0.79999995
7.5 5 6.25 0.7071068 0.7071067 0 0.5 0.79999995
3.75 5 5 -0.61541224 0.78820544 0 0.95 0.7932504
2.5 0 3.75 -0.27812034 0.9295697 -0.2419698 1 0.999022
2.5 0 5 -0.61541224 0.78820544 0 0.95 0.999022
3.75 5 6.25 -0.61541224 0.78820544 0 0.9 0.7932504
2.5 0 6.25 -0.61541224 0.78820544 0 0.9 0.999022
3.75 5 7.5 -0.49628288 0.63562745 0.5913383 0.85 0.7932504
2.5 0 7.5 -0.27812034 0.9295697 0.2419698 0.85 0.999022
2.5 0 7.5 -0.27812034 0.9295697 0.2419698 0.19999999 1
3.75 5 3.75 -0.49628296 0.63562745 -0.59133834 0.25 0.79999995
2.5 0 3.75 -0.27812034 0.9295697 -0.2419698 0.19999999 1
-10 0 10 0 1 0 0.79999995 0.79999995
-7.5 10 -7.5 -0.5773502 0.57735026 -0.5773504 0.79999995 0
7.5 5 7.5 0.5773503 0.5773502 0.5773503 0 0.79999995
-7.5 10 -6.25 -0.5773504 0.5773504 0.5773502 0.75 0.84999996
-6.25 10 -6.25 0.5773502 0.57735026 0.5773504 0.79999995 0.39999998
3.75 5 7.5 -0.49628288 0.63562745 0.5913383 0.7 0.95
3.75 5 3.75 -0.49628296 0.63562745 -0.59133834 1 0.7932504
3 0 1 2
3 3 4 5
3 6 7 8
3 9 10 11
3 12 13 14
3 15 16 17
3 18 19 20
3 21 22 23
3 24 25 26
3 27 28 29
3 30 31 32
3 33 34 35
3 36 37 38
3 39 40 41
3 42 43 44
3 45 46 47
3 48 49 50
3 51 52 53
3 54 55 56
3 57 58 59
3 60 61 62
3 63 64 65
3 66 67 68
3 69 70 71
3 72 73 74
3 75 76 77
3 78 79 80
3 81 82 83
3 84 85 86
3 87 88 89
3 90 91 92
3 93 94 95
3 96 97 98
3 99 100 101
3 102 103 104
3 105 106 107
3 108 109 110
3 111 112 113
3 114 115 116
3 117 118 119
3 120 121 122
3 123 124 125
3 126 127 128
3 129 130 131
3 132 133 134
3 135 136 137
3 138 139 140
3 141 142 143
3 144 145 146
3 147 148 149
3 150 151 152
3 153 154 155
3 156 157 158
3 159 160 161
3 162 163 164
3 165 166 167
3 168 169 170
3 171 172 173
3 174 175 176
3 177 178 179
3 180 181 182
3 182 183 177
3 43 177 184
3 185 182 43
3 179 186 69
3 46 69 187
3 184 179 46
3 176 188 36
3 178 36 186
3 183 176 178
3 173 189 190
3 34 190 191
3 192 173 34
3 193 194 195
3 195 196 197
3 170 198 30
3 199 30 200
3 189 170 199
3 167 201 162
3 28 162 202
3 203 167 28
3 164 204 120
3 97 120 205
3 202 164 97
3 161 206 21
3 163 21 204
3 201 161 163
3 158 207 153
3 19 153 208
3 209 158 19
3 155 210 147
3 124 147 211
3 208 155 124
3 152 212 12
3 154 12 210
3 207 152 154
3 149 213 144
3 16 144 214
3 211 149 16
3 146 215 165
3 133 165 203
3 214 146 133
3 143 216 6
3 145 6 215
3 213 143 145
3 140 217 135
3 218 135 219
3 220 140 218
3 137 221 102
3 222 102 223
3 219 137 222
3 134 203 27
3 136 27 221
3 217 134 136
3 131 224 126
3 225 126 226
3 227 131 225
3 128 228 138
3 229 138 220
3 226 128 229
3 125 211 15
3 127 15 228
3 230 231 232
3 122 233 117
3 25 117 234
3 205 122 25
3 119 235 236
3 106 236 237
3 234 119 106
3 116 238 239
3 118 239 235
3 233 116 118
3 113 240 108
3 241 108 242
3 243 113 241
3 110 244 245
3 246 245 247
3 242 110 246
3 107 237 248
3 109 248 244
3 240 107 109
3 104 249 99
3 250 99 251
3 223 104 250
3 101 252 111
3 253 111 243
3 251 101 253
3 98 205 24
3 100 24 252
3 249 98 100
3 254 255 256
3 92 257 258
3 79 258 259
3 260 92 79
3 89 261 262
3 91 262 257
3 263 89 91
3 86 264 81
3 22 81 265
3 206 86 22
3 83 266 267
3 115 267 238
3 265 83 115
3 80 259 268
3 82 268 266
3 264 80 82
3 77 269 72
3 7 72 270
3 216 77 7
3 74 271 84
3 160 84 206
3 270 74 160
3 272 273 193
3 73 274 271
3 269 275 73
3 71 276 66
3 40 66 277
3 187 71 40
3 68 278 171
3 55 171 192
3 277 68 55
3 65 279 3
3 67 3 278
3 276 65 67
3 62 280 57
3 13 57 281
3 212 62 13
3 59 282 75
3 142 75 216
3 281 59 142
3 56 192 33
3 58 33 282
3 280 56 58
3 53 283 48
3 10 48 284
3 285 53 10
3 50 286 60
3 151 60 212
3 284 50 151
3 47 187 39
3 49 39 286
3 283 47 49
3 44 184 45
3 52 45 283
3 287 44 52
3 41 277 54
3 61 54 280
3 286 41 61
3 38 288 63
3 70 63 276
3 186 38 70
3 35 191 289
3 76 289 269
3 282 35 76
3 256 290 291
3 85 78 264
3 271 292 85
3 32 293 87
3 294 87 263
3 200 32 294
3 29 202 96
3 103 96 249
3 221 29 103
3 26 234 105
3 112 105 240
3 252 26 112
3 23 265 114
3 121 114 233
3 204 23 121
3 20 208 123
3 130 123 224
3 295 20 130
3 17 214 132
3 139 132 217
3 228 17 139
3 14 281 141
3 148 141 213
3 210 14 148
3 11 284 150
3 157 150 207
3 296 11 157
3 8 270 159
3 166 159 201
3 215 8 166
3 5 297 168
3 172 168 189
3 278 5 172
3 2 298 174
3 181 174 183
3 299 2 181
3 300 301 302
3 303 304 305
3 306 307 308
3 232 309 310
3 311 312 313
3 314 315 316
3 317 318 314
3 319 314 320
3 316 321 322
3 312 322 323
3 320 316 312
3 324 320 311
3 313 323 325
3 326 327 254
3 328 329 326
3 291 330 93
3 331 332 333
3 334 333 335
3 336 335 337
3 197 196 338
3 339 328 340
3 0 341 1
3 3 279 4
3 6 216 7
3 9 285 10
3 12 212 13
3 15 211 16
3 18 209 19
3 21 206 22
3 24 205 25
3 27 203 28
3 30 198 31
3 33 192 34
3 36 188 37
3 39 187 40
3 42 185 43
3 45 184 46
3 48 283 49
3 51 287 52
3 54 277 55
3 57 280 58
3 60 286 61
3 63 288 64
3 66 276 67
3 69 186 70
3 72 269 73
3 75 282 76
3 78 260 79
3 81 264 82
3 84 271 85
3 87 293 88
3 90 263 91
3 93 330 94
3 96 202 97
3 99 249 100
3 102 221 103
3 105 234 106
3 108 240 109
3 111 252 112
3 114 265 115
3 117 233 118
3 120 204 121
3 123 208 124
3 126 224 127
3 129 295 130
3 132 214 133
3 135 217 136
3 138 228 139
3 141 281 142
3 144 213 145
3 147 210 148
3 150 284 151
3 153 207 154
3 156 296 157
3 159 270 160
3 162 201 163
3 165 215 166
3 168 297 169
3 171 278 172
3 174 298 175
3 177 183 178
3 180 299 181
3 182 181 183
3 43 182 177
3 185 180 182
3 179 178 186
3 46 179 69
3 184 177 179
3 176 175 188
3 178 176 36
3 183 174 176
3 173 172 189
3 34 173 190
3 192 171 173
3 193 273 194
3 195 194 196
3 170 169 198
3 199 170 30
3 189 168 170
3 167 166 201
3 28 167 162
3 203 165 167
3 164 163 204
3 97 164 120
3 202 162 164
3 161 160 206
3 163 161 21
3 201 159 161
3 158 157 207
3 19 158 153
3 209 156 158
3 155 154 210
3 124 155 147
3 208 153 155
3 152 151 212
3 154 152 12
3 207 150 152
3 149 148 213
3 16 149 144
3 211 147 149
3 146 145 215
3 133 146 165
3 214 144 146
3 143 142 216
3 145 143 6
3 213 141 143
3 140 139 217
3 218 140 135
3 220 138 140
3 137 136 221
3 222 137 102
3 219 135 137
3 134 133 203
3 136 134 27
3 217 132 134
3 131 130 224
3 225 131 126
3 227 129 131
3 128 127 228
3 229 128 138
3 226 126 128
3 125 124 211
3 127 125 15
3 230 342 231
3 122 121 233
3 25 122 117
3 205 120 122
3 119 118 235
3 106 119 236
3 234 117 119
3 116 115 238
3 118 116 239
3 233 114 116
3 113 112 240
3 241 113 108
3 243 111 113
3 110 109 244
3 246 110 245
3 242 108 110
3 107 106 237
3 109 107 248
3 240 105 107
3 104 103 249
3 250 104 99
3 223 102 104
3 101 100 252
3 253 101 111
3 251 99 101
3 98 97 205
3 100 98 24
3 249 96 98
3 254 327 255
3 92 91 257
3 79 92 258
3 260 90 92
3 89 88 261
3 91 89 262
3 263 87 89
3 86 85 264
3 22 86 81
3 206 84 86
3 83 82 266
3 115 83 267
3 265 81 83
3 80 79 259
3 82 80 268
3 264 78 80
3 77 76 269
3 7 77 72
3 216 75 77
3 74 73 271
3 160 74 84
3 270 72 74
3 272 343 273
3 73 275 274
3 269 289 275
3 71 70 276
3 40 71 66
3 187 69 71
3 68 67 278
3 55 68 171
3 277 66 68
3 65 64 279
3 67 65 3
3 276 63 65
3 62 61 280
3 13 62 57
3 212 60 62
3 59 58 282
3 142 59 75
3 281 57 59
3 56 55 192
3 58 56 33
3 280 54 56
3 53 52 283
3 10 53 48
3 285 51 53
3 50 49 286
3 151 50 60
3 284 48 50
3 47 46 187
3 49 47 39
3 283 45 47
3 44 43 184
3 52 44 45
3 287 42 44
3 41 40 277
3 61 41 54
3 286 39 41
3 38 37 288
3 70 38 63
3 186 36 38
3 35 34 191
3 76 35 289
3 282 33 35
3 256 255 290
3 85 292 78
3 271 274 292
3 32 31 293
3 294 32 87
3 200 30 32
3 29 28 202
3 103 29 96
3 221 27 29
3 26 25 234
3 112 26 105
3 252 24 26
3 23 22 265
3 121 23 114
3 204 21 23
3 20 19 208
3 130 20 123
3 295 18 20
3 17 16 214
3 139 17 132
3 228 15 17
3 14 13 281
3 148 14 141
3 210 12 14
3 11 10 284
3 157 11 150
3 296 9 11
3 8 7 270
3 166 8 159
3 215 6 8
3 5 4 297
3 172 5 168
3 278 3 5
3 2 1 298
3 181 2 174
3 299 0 2
3 300 344 301
3 303 307 304
3 306 345 307
3 232 231 309
3 311 320 312
3 314 318 315
3 317 346 318
3 319 317 314
3 316 315 321
3 312 316 322
3 320 314 316
3 324 319 320
3 313 312 323
3 326 329 327
3 328 339 329
3 291 290 330
3 331 347 332
3 334 331 333
3 336 334 335
