ply
format ascii 1.0
comment Created in Blender version 4.2.3 LTS
element vertex 310
property float x
property float y
property float z
property float nx
property float ny
property float nz
property float s
property float t
element face 324
property list uchar uint vertex_indices
end_header
0 0.7168258 0.096247464 0 -0.4185143 0.9082102 0.7663531 0.47898173
-0.16506547 0.6687915 -0.11081797 -0.7281341 -0.62755704 -0.2756681 0.6549308 0.3384794
0 0.6058448 -0.08882791 -3.8423695e-09 -0.9927841 -0.11991544 0.77350754 0.3353719
-0.16728652 1.1036859 -0.043736823 -0.7354776 0.1754726 0.65443265 0.26357576 0.3470657
-0.17525415 1.202656 -0.28096393 -0.66820043 0.4055771 -0.623711 0.121998765 0.4428514
-0.16728652 1.0191014 -0.27205715 -0.74616766 -0.17540848 -0.642235 0.1093092 0.32582945
0 1.1181145 -0.017621666 2.5087388e-09 0.35041314 0.9365953 0.07601777 0.7222215
-0.17525415 1.2578359 -0.12945506 -0.65599084 0.70488286 0.2698447 0.14460748 0.56686234
-0.16728652 1.1036859 -0.043736823 -0.7354776 0.1754726 0.65443265 0.18327053 0.6801523
0 1.2140124 -0.30592313 1.3944451e-07 0.54365987 -0.8393057 0.002302988 0.47160363
0 1.0119836 -0.30501786 -5.0311555e-09 -0.1835285 -0.98301446 0.00029080542 0.3350993
0 1.282162 -0.13284743 1.4449247e-07 0.96211404 0.27264732 0.038243175 0.60447216
-0.15108268 0.77621573 -0.16661718 -0.7802579 -0.2508216 -0.5729627 0.12820496 0.17147292
0 0.8414323 -0.24420956 -0 -0.40285075 -0.9152657 0.014971393 0.21670394
0 0.73593295 -0.1894649 -0 -0.50772583 -0.8615187 0.026999382 0.13947701
0 0.93658525 0.01120612 0 0.28111264 0.9596748 0.12836884 0.83530915
-0.15108268 0.8587492 0.019142777 -0.75419915 0.31773856 0.57465285 0.24350977 0.8422973
0 0.8455991 0.04910609 2.0308265e-08 0.3991172 0.9168999 0.15409969 0.8969822
-0.1515937 0.9477624 -0.01779753 -0.7748504 0.12662563 0.6193327 0.25539285 0.25656396
-0.15108268 0.8587492 0.019142777 -0.75419915 0.31773856 0.57465285 0.26358888 0.1933998
-0.12714657 1.1891758 -0.23082829 0.7427811 0.2638468 -0.61535454 0.6196952 0.6026646
-0.13962153 1.143112 -0.10127178 0.6895026 0.123281315 0.7137142 0.6692974 0.5079186
-0.13962153 1.0944487 -0.22478986 0.68950593 -0.39666724 -0.60600054 0.6853681 0.59445703
-0.13962153 1.143112 -0.10127178 0.6895026 0.123281315 0.7137142 0.67336816 0.8230269
-0.19571117 1.2437317 -0.17219543 -0.12674052 0.9836525 0.12792456 0.6209623 0.7276958
-0.2617219 1.1916028 -0.12037602 -0.5971812 0.63103944 0.49514037 0.68631613 0.73504853
-0.2617219 1.1429396 -0.2438941 -0.5972076 0.12375565 -0.7924819 0.68983865 0.66637886
-0.19571115 1.2164053 -0.24155611 -0.12675624 0.6320586 -0.76448333 0.61758643 0.66560495
-0.33853805 0.92711985 -0.04409713 -0.7447942 -0.14373927 0.65162927 0.8997175 0.9432503
-0.2642221 0.8679875 -0.107648164 0.27794194 -0.93431956 -0.22314869 0.8577151 0.90124774
-0.26422215 0.89760613 -0.032469396 0.27796236 -0.53102416 0.80046886 0.8997175 0.90124786
-0.19571117 1.2437317 -0.17219543 -0.12674052 0.9836525 0.12792456 0.85251397 0.8359125
-0.12714657 1.1891758 -0.23082829 0.7427811 0.2638468 -0.61535454 0.9021865 0.885585
-0.19571115 1.2164053 -0.24155611 -0.12675624 0.6320586 -0.76448333 0.852514 0.885585
-0.33853805 0.89750123 -0.1192759 -0.74479324 -0.54956657 -0.37849656 0.8649301 0.66218543
-0.2642221 0.8679875 -0.107648164 0.27794194 -0.93431956 -0.22314869 0.86633 0.6017004
-0.33853805 0.92711985 -0.04409713 -0.7447942 -0.14373927 0.65162927 0.8689993 0.7234328
-0.26422215 0.89760613 -0.032469396 0.27796236 -0.53102416 0.80046886 0.87755597 0.78210783
-0.26422215 0.89760613 -0.032469396 0.27796236 -0.53102416 0.80046886 0.87283546 0.5411868
-0.26880994 0.89483535 -0.10577497 0.6869153 0.32834417 -0.6483345 0.84625393 0.2900126
-0.2667823 0.8591932 -0.0056019723 0.7076948 0.17313692 0.6849757 0.7727077 0.25713372
-0.2667823 0.82157123 -0.10109481 0.70766884 -0.3406 -0.6190286 0.83753383 0.24348773
-0.26880994 0.91596174 -0.05215165 0.686924 0.682315 0.25016347 0.9694191 0.30146974
-0.36534548 0.88582885 -0.016095787 -0.6340871 0.5546811 0.53876007 0.9345659 0.24023636
-0.2667823 0.8591932 -0.0056019723 0.7076948 0.17313692 0.6849757 0.9997091 0.2515986
-0.32247186 0.91439974 -0.11348289 -0.21682514 0.6119097 -0.7606271 0.88678086 0.28448904
-0.36534548 0.8482069 -0.11158863 -0.6340973 0.038140833 -0.7723121 0.8853561 0.24022861
-0.3580676 0.64527094 -0.004096091 0.6695666 -0.3595464 -0.64992845 0.8435138 0.09545268
-0.43774557 0.54721165 0.015278816 -0.6519094 -0.63903075 -0.40823254 0.8874222 0.009062931
-0.40741754 0.65860724 -0.00935027 -0.70985556 -0.087816514 -0.6988515 0.88508433 0.09794839
-0.32247186 0.93552613 -0.059859574 -0.2168163 0.96628857 0.13884199 0.766926 0.931343
-0.26880994 0.89483535 -0.10577497 0.6869153 0.32834417 -0.6483345 0.736069 0.90048593
-0.32247186 0.91439974 -0.11348289 -0.21682514 0.6119097 -0.7606271 0.766926 0.90048593
-0.40741754 0.6774443 0.03846234 -0.7098618 0.41245523 0.5709439 0.9257816 0.10006681
-0.35806763 0.664108 0.04371652 0.6695726 0.18037851 0.720511 0.96358526 0.10151185
-0.35806763 0.664108 0.04371652 0.6695726 0.18037851 0.720511 0.8027841 0.09741162
-0.0071087657 0.7949816 -0.043854058 0.6761599 0.6934847 0.24877073 0.62205243 0.3565718
-0.016748423 0.56971776 -0.1546498 0.70306385 -0.70840675 0.062137466 0.48139435 0.46588585
-0.016747555 0.74764985 -0.20487684 0.6828964 0.64080113 -0.3507513 0.5085749 0.34592855
-0.0071096867 0.61035526 0.0076357126 0.67467326 -0.4698314 0.5692754 0.59803885 0.014488608
-0.18076026 0.5829891 -0.10705578 -0.7252084 -0.6555285 0.210607 0.52641696 0.13356152
-0.016748423 0.56971776 -0.1546498 0.70306385 -0.70840675 0.062137466 0.4811022 0.0299672
-0.15018094 0.81044817 0.011610448 -0.40077394 0.74243027 0.53682184 0.6543491 0.24770993
-0.18075937 0.76092124 -0.15728289 -0.71763897 0.6710325 -0.18630564 0.5365114 0.24688053
-0.07871934 0.5146356 -0.44888127 0.4950998 -0.71521974 -0.4932921 0.72388387 0.892987
-0.175971 0.6099622 -0.46968195 -0.6011083 0.33191276 -0.726982 0.6746401 0.8437433
-0.07871888 0.60846645 -0.4750494 0.4982088 0.30947703 -0.8099457 0.72388387 0.8437433
-0.0071096867 0.61035526 0.0076357126 0.67467326 -0.4698314 0.5692754 0.87684965 0.33537194
-0.15018094 0.81044817 0.011610448 -0.40077394 0.74243027 0.53682184 0.77408904 0.46308342
-0.15018186 0.6258218 0.06310016 -0.40084454 -0.36153814 0.8417921 0.7740891 0.33537194
-0.175971 0.6099622 -0.46968195 -0.6011083 0.33191276 -0.726982 0.31195444 0.24465671
-0.07871888 0.60846645 -0.4750494 0.4982088 0.30947703 -0.8099457 0.30941707 0.31336898
-0.17597145 0.5161314 -0.4435138 -0.59331614 -0.690225 -0.41420466 0.31708434 0.17510046
-0.07871934 0.5146356 -0.44888127 0.4950998 -0.71521974 -0.4932921 0.31693092 0.102166414
-0.07871934 0.5146356 -0.44888127 0.4950998 -0.71521974 -0.4932921 0.2866575 0.37759146
-0.06495202 0.4567438 -0.42576882 0.6998118 -0.51661015 -0.493333 0.38355708 0.8555255
-0.08127611 0.6002163 -0.43605506 0.5462724 0.80513465 -0.23096503 0.3310726 0.9301957
-0.064953126 0.5616295 -0.34835947 0.69977707 0.6237175 0.3482652 0.30149984 0.87017334
-0.064953126 0.5616295 -0.34835947 0.69977707 0.6237175 0.3482652 0.5990978 0.87015915
-0.16944389 0.60310054 -0.43996373 -0.47920918 0.8352968 -0.26951405 0.51263595 0.917676
-0.19530234 0.5625493 -0.34960687 -0.7074623 0.62759286 0.32499906 0.5195659 0.8561164
-0.19530123 0.45766363 -0.42701626 -0.70747703 -0.49553555 -0.50390565 0.45244485 0.85221684
-0.16944315 0.5320536 -0.4923989 -0.4791861 0.011342318 -0.87764007 0.45149747 0.9174901
-0.081998095 0.34436816 -0.08764394 0.7074592 0.5448071 0.45020753 0.59300905 0.64423925
-0.1722573 0.29767695 -0.024380304 -0.576556 0.12126766 0.80800825 0.54628825 0.575235
-0.08187888 0.29774067 -0.024465881 0.5781229 0.122116715 0.80675983 0.6054267 0.58723795
-0.08127611 0.6002163 -0.43605506 0.5462724 0.80513465 -0.23096503 0.84117126 0.8848135
-0.16944315 0.5320536 -0.4923989 -0.4791861 0.011342318 -0.87764007 0.8038583 0.8398397
-0.16944389 0.60310054 -0.43996373 -0.47920918 0.8352968 -0.26951405 0.84117126 0.84400606
-0.17237575 0.27158642 -0.14122686 -0.87408525 -0.18448977 -0.44937587 0.45920292 0.60764885
-0.081997335 0.27165017 -0.14131245 0.8733889 -0.17804442 -0.4533123 0.3763667 0.6097722
-0.17237653 0.34430444 -0.08755836 -0.7055197 0.5417283 0.4569162 0.5248512 0.6326787
-0.081998095 0.34436816 -0.08764394 0.7074592 0.5448071 0.45020753 0.32953504 0.6310317
-0.1515937 0.87060124 -0.21539089 -0.76522887 -0.28901553 -0.5752346 0.11514231 0.2415975
-0.1515937 0.9477624 -0.01779753 -0.7748504 0.12662563 0.6193327 0.21865515 0.7818675
-0.16506547 0.6687915 -0.11081797 -0.7281341 -0.62755704 -0.2756681 0.1476669 0.09188068
-0.16506547 0.7410114 0.084414035 -0.6561014 -0.23209676 0.71809614 0.2860759 0.105794325
-0.16506547 0.7410114 0.084414035 -0.6561014 -0.23209676 0.71809614 0.2860759 0.92358935
0 0.7168258 0.096247464 0 -0.4185143 0.9082102 0.1894717 0.98296404
0 0.6058448 -0.08882791 -3.8423695e-09 -0.9927841 -0.11991544 0.04561563 0.031540826
-0.08187888 0.29774067 -0.024465881 0.5781229 0.122116715 0.80675983 0.7389639 0.8894642
-0.17225653 0.22495894 -0.07804881 -0.7060889 -0.42038837 0.5698351 0.7858481 0.8425799
-0.08187812 0.22502267 -0.07813439 0.70811135 -0.4194083 0.568045 0.7858481 0.8894642
-0.08187812 0.22502267 -0.07813439 0.70811135 -0.4194083 0.568045 0.34105918 0.55932
-0.17225653 0.22495894 -0.07804881 -0.7060889 -0.42038837 0.5698351 0.49180284 0.5518737
-0.17237449 0.14187732 -0.1846087 -0.59676623 -0.24271435 -0.76482666 0.44840753 0.5400368
-0.17225543 0.12026103 -0.15531963 -0.57601064 -0.80819 0.12264084 0.430826 0.5040431
-0.08199607 0.14194107 -0.18469428 0.59447896 -0.2414144 -0.76701635 0.37132475 0.5451555
-0.08187812 0.22502267 -0.07813439 0.70811135 -0.4194083 0.568045 0.6124313 0.8451601
-0.17225543 0.12026103 -0.15531963 -0.57601064 -0.80819 0.12264084 0.6598046 0.91336703
-0.081877016 0.120324776 -0.1554052 0.5786927 -0.8065543 0.1207682 0.6124313 0.91336703
-0.3506545 0.57469374 0.09820181 0.5763684 -0.2671358 0.7722939 0.84315014 0.9453826
-0.43774557 0.54721165 0.015278816 -0.6519094 -0.63903075 -0.40823254 0.8011622 0.9033946
-0.3506545 0.54272103 0.017048001 0.57636976 -0.7221034 -0.3825762 0.84315014 0.9033946
-0.43774557 0.57918435 0.096432626 -0.6519407 -0.18881406 0.7343859 0.944185 0.015447527
-0.3506545 0.57469374 0.09820181 0.5763684 -0.2671358 0.7722939 0.9997091 0.038712308
-0.3506545 0.54272103 0.017048001 0.57636976 -0.7221034 -0.3825762 0.8309831 0.015731126
-1.4746759e-15 1.3122243 -0.17618662 0 0.062523305 0.99804354 0.76689875 0.14026459
-0.06488863 1.2276461 -0.18004145 -0.7059198 -0.43887526 0.5559369 0.73058265 0.08831915
-2.2543037e-15 1.2370845 -0.14791027 -2.4196989e-09 -0.3373 0.94139725 0.7721262 0.081679724
-0.0558036 1.2915416 -0.2666178 -0.8940731 -0.37118465 -0.25070956 0.6734016 0.11502963
-0.06488863 1.2078862 -0.24731082 -0.70755756 -0.6594007 -0.25407314 0.70178497 0.06017278
-0.0558036 1.2915416 -0.2666178 -0.8940731 -0.37118465 -0.25070956 0.6724743 0.03183605
-4.5610844e-15 1.1984475 -0.27944198 -2.2783393e-09 -0.76868796 -0.6396241 0.7180758 0.019367017
-0.083836816 1.3966211 -0.19675234 -0.83785903 -0.08238515 0.5396342 0.7058802 0.19844893
-0.08248773 1.4706373 -0.27329633 -0.8367784 0.5429629 -0.07066251 0.6678499 0.24713355
-0.08463453 1.3849525 -0.26626122 -0.9900609 -0.13919279 0.020124013 0.66093487 0.1853128
-0.072117515 1.4794525 -0.20276183 -0.7059749 0.54315925 0.45450795 0.7167358 0.24787042
6.962611e-19 1.5077295 -0.29215178 -1.0693123e-08 0.99487215 -0.10114154 0.67497474 0.31789806
-0.08463453 1.3849525 -0.26626122 -0.9900609 -0.13919279 0.020124013 0.98895353 0.6038948
-0.076612994 1.458309 -0.34077236 -0.77784866 0.39843893 -0.48600194 0.937366 0.6575769
-0.08168473 1.3776631 -0.3378824 -0.8748035 -0.087783135 -0.47645882 0.94034564 0.60364354
3.2552493e-16 1.4159763 -0.15976438 1.3649708e-07 0.048172798 0.998839 0.76745397 0.21875587
-3.4252623e-15 1.3654615 -0.38805264 -6.452644e-08 -0.095661074 -0.99541396 0.8781377 0.5899775
-1.1623613e-15 1.501337 -0.37380177 0 0.7305943 -0.68281186 0.8781377 0.68492174
6.962611e-19 1.5077295 -0.29215178 -1.0693123e-08 0.99487215 -0.10114154 0.91705835 0.7264503
-0.08248773 1.4706373 -0.27329633 -0.8367784 0.5429629 -0.07066251 0.9709897 0.69161224
-3.2816665e-15 1.2883854 -0.2867499 -5.7984932e-09 -0.78688043 -0.6171055 0.9444656 0.5079186
-0.06282517 1.2989984 -0.33692718 -0.6674807 -0.6315233 -0.3945223 0.93580574 0.5575707
-4.2900423e-15 1.2877887 -0.3633349 -7.2314017e-09 -0.7678803 -0.6405933 0.8988447 0.53607905
-0.05181505 1.3171546 -0.19278686 -0.75813025 -0.06778685 0.6485704 0.72557235 0.14129996
-0.0558036 1.2915416 -0.2666178 -0.8940731 -0.37118465 -0.25070956 0.97472364 0.53771496
0.16506547 0.6687915 -0.11081797 0.72813404 -0.6275571 -0.2756681 0.6549308 0.3384794
0.16506547 0.7410114 0.084414035 0.65610147 -0.23209678 0.71809614 0.6549308 0.4771778
0.16728652 1.1036859 -0.043736823 0.7354776 0.17547259 0.6544326 0.26357576 0.3470657
0.17525415 1.202656 -0.28096393 0.6682006 0.40557703 -0.6237109 0.121998765 0.4428514
0.17525415 1.2578359 -0.12945506 0.65599096 0.70488274 0.2698447 0.22796863 0.45889005
0.17525415 1.2578359 -0.12945506 0.65599096 0.70488274 0.2698447 0.14460748 0.56686234
0.16728652 1.0191014 -0.27205715 0.74616766 -0.17540848 -0.6422349 0.1093092 0.32582945
0.15108268 0.77621573 -0.16661718 0.7802579 -0.25082156 -0.5729627 0.12820496 0.17147292
0.1515937 0.87060124 -0.21539089 0.7652289 -0.28901553 -0.5752346 0.11514231 0.2415975
0.15108268 0.8587492 0.019142777 0.75419927 0.31773856 0.57465285 0.24350977 0.8422973
0.1515937 0.9477624 -0.01779753 0.7748504 0.12662561 0.6193327 0.25539285 0.25656396
0.15108268 0.8587492 0.019142777 0.75419927 0.31773856 0.57465285 0.26358888 0.1933998
0.1396216 1.0944484 -0.22478974 -0.6895171 -0.39666384 -0.60599005 0.6853681 0.59445703
0.12714665 1.2165021 -0.1614675 -0.74278367 0.6126576 0.2700428 0.60600823 0.54656494
0.12714665 1.1891756 -0.23082817 -0.74278593 0.26384386 -0.6153499 0.6196952 0.6026646
0.1396216 1.1431117 -0.10127166 -0.68949133 0.12328613 0.7137242 0.67336816 0.8230269
0.19571124 1.2437315 -0.17219532 0.12674111 0.9836524 0.12792453 0.6209623 0.7276958
0.12714665 1.2165021 -0.1614675 -0.74278367 0.6126576 0.2700428 0.60600823 0.78575027
0.26172197 1.1429393 -0.24389398 0.59720755 0.123755686 -0.79248196 0.68983865 0.66637886
0.26172197 1.1916026 -0.1203759 0.5971814 0.63103914 0.49514046 0.68631613 0.73504853
0.19571123 1.216405 -0.24155599 0.12675633 0.632059 -0.76448315 0.61758643 0.66560495
0.26422215 0.8679873 -0.107648075 -0.27794176 -0.9343196 -0.22314869 0.8577151 0.90124774
0.3385381 0.9271196 -0.04409701 0.74479383 -0.14373943 0.6516297 0.8997175 0.9432503
0.2642222 0.8976059 -0.032469276 -0.27796328 -0.53102416 0.80046844 0.8997175 0.90124786
0.19571124 1.2437315 -0.17219532 0.12674111 0.9836524 0.12792453 0.85251397 0.8359125
0.12714665 1.1891756 -0.23082817 -0.74278593 0.26384386 -0.6153499 0.9021865 0.885585
0.12714665 1.2165021 -0.1614675 -0.74278367 0.6126576 0.2700428 0.9021865 0.8359125
0.3385381 0.897501 -0.11927581 0.7447934 -0.5495663 -0.37849656 0.8649301 0.66218543
0.3385381 0.9271196 -0.04409701 0.74479383 -0.14373943 0.6516297 0.8689993 0.7234328
0.2642222 0.8976059 -0.032469276 -0.27796328 -0.53102416 0.80046844 0.87755597 0.78210783
0.26422215 0.8679873 -0.107648075 -0.27794176 -0.9343196 -0.22314869 0.86633 0.6017004
0.1396216 1.1431117 -0.10127166 -0.68949133 0.12328613 0.7137242 0.6692974 0.5079186
0.26678234 0.8215714 -0.10109481 -0.7076803 -0.34059405 -0.61901885 0.83753383 0.24348773
0.26880997 0.9159619 -0.05215165 -0.68691885 0.68231934 0.25016567 0.8045036 0.30278814
0.26880997 0.89483565 -0.10577497 -0.68692076 0.32834265 -0.64832944 0.84625393 0.2900126
0.3653455 0.88582903 -0.016095787 0.63407916 0.5546786 0.53877205 0.9345659 0.24023636
0.26880997 0.9159619 -0.05215165 -0.68691885 0.68231934 0.25016567 0.9694191 0.30146974
0.26678234 0.8591934 -0.0056019723 -0.70768327 0.17313892 0.68498707 0.9997091 0.2515986
0.3653455 0.84820706 -0.11158863 0.6341051 0.038151067 -0.77230513 0.8853561 0.24022861
0.3224719 0.9355263 -0.059859574 0.21681233 0.96628916 0.1388441 0.9266552 0.28991926
0.3224719 0.91440004 -0.11348289 0.21682908 0.61191106 -0.7606249 0.88678086 0.28448904
0.4377456 0.5472118 0.015278816 0.6519408 -0.6389864 -0.40825197 0.8874222 0.009062931
0.35806763 0.6452711 -0.004096061 -0.66956747 -0.35954627 -0.6499276 0.8435138 0.09545268
0.40741757 0.6586074 -0.00935027 0.70986027 -0.087812886 -0.6988471 0.88508433 0.09794839
0.3224719 0.9355263 -0.059859574 0.21681233 0.96628916 0.1388441 0.766926 0.931343
0.26880997 0.89483565 -0.10577497 -0.68692076 0.32834265 -0.64832944 0.736069 0.90048593
0.26880997 0.9159619 -0.05215165 -0.68691885 0.68231934 0.25016567 0.736069 0.931343
0.40741757 0.6774445 0.03846237 0.70985717 0.41245538 0.5709496 0.9257816 0.10006681
0.35806766 0.66410816 0.04371655 -0.6695719 0.18037845 0.7205117 0.96358526 0.10151185
0.35806766 0.66410816 0.04371655 -0.6695719 0.18037845 0.7205117 0.8027841 0.09741162
0.016745279 0.6629139 0.16872567 -0.7030646 0.4417498 0.5572767 0.48139435 0.46588585
0.007109281 0.6314512 -0.08033192 -0.6761577 -0.17393762 -0.7159305 0.62205243 0.3565718
0.016745428 0.52305484 0.0478037 -0.6828983 -0.64550716 -0.34200943 0.5085749 0.34592855
0.18075788 0.6953485 0.13145018 0.7252098 0.5365977 0.43143207 0.52641696 0.13356152
0.0071091377 0.77604866 0.045484424 -0.6746693 0.7338814 0.07899039 0.59803885 0.014488608
0.016745279 0.6629139 0.16872567 -0.7030646 0.4417498 0.5572767 0.4811022 0.0299672
0.15018237 0.669249 -0.12377143 0.40077788 0.039628915 -0.91531783 0.6543491 0.24770993
0.15018222 0.81384647 0.0020449758 0.40084803 0.90181464 -0.16140443 0.6419246 0.11388135
0.18075803 0.55548936 0.010528266 0.7176391 -0.52485454 -0.45773566 0.5365114 0.24688053
0.078711666 0.44756135 0.37664112 -0.49510083 -0.018260598 0.8686437 0.72388387 0.892987
0.17596397 0.3777324 0.3084947 0.6011055 -0.78965443 0.122955434 0.6746401 0.8437433
0.17596388 0.45121974 0.37243712 0.5933142 0.03401611 0.80425197 0.6746401 0.892987
0.15018237 0.669249 -0.12377143 0.40077788 0.039628915 -0.91531783 0.77408904 0.46308342
0.0071091377 0.77604866 0.045484424 -0.6746693 0.7338814 0.07899039 0.87684965 0.33537194
0.15018222 0.81384647 0.0020449758 0.40084803 0.90181464 -0.16140443 0.7740891 0.33537194
0.17596397 0.3777324 0.3084947 0.6011055 -0.78965443 0.122955434 0.31195444 0.24465671
0.17596388 0.45121974 0.37243712 0.5933142 0.03401611 0.80425197 0.31708434 0.17510046
0.078711666 0.44756135 0.37664112 -0.49510083 -0.018260598 0.8686437 0.31693092 0.102166414
0.07871174 0.37407398 0.3126987 -0.49821162 -0.8465735 0.18734607 0.30941707 0.31336898
0.06494539 0.32950166 0.39918244 -0.6997972 -0.6507686 -0.29459146 0.38355708 0.8555255
0.081268184 0.46148726 0.34199816 -0.5462782 0.68333375 -0.4843915 0.3310726 0.9301957
0.081269 0.37709153 0.31602794 -0.5462712 -0.29281843 -0.78475803 0.39012724 0.915763
0.064944185 0.45409405 0.43752193 -0.69979036 0.7038123 0.1222366 0.5990978 0.87015915
0.16943601 0.46291724 0.33735615 0.47920308 0.6990571 -0.5307387 0.51263595 0.917676
0.081268184 0.46148726 0.34199816 -0.5462782 0.68333375 -0.4843915 0.5713913 0.9301957
0.19529462 0.32995945 0.39770216 0.70749146 -0.63435626 -0.31152523 0.45244485 0.85221684
0.1952934 0.45455182 0.43604165 0.70744914 0.69979405 0.0990151 0.5195659 0.8561164
0.16943681 0.3785215 0.31138593 0.4792001 -0.27971518 -0.8319416 0.45149747 0.9174901
0.08198721 0.33534896 0.75544465 -0.7074734 0.6630821 0.24454755 0.59300905 0.64423925
0.17224588 0.31222516 0.8305958 0.5765418 0.38183004 0.7223611 0.54628825 0.575235
0.17236562 0.33531892 0.75554734 0.7055054 0.66242075 0.25191453 0.5248512 0.6326787
0.16943681 0.3785215 0.31138593 0.4792001 -0.27971518 -0.8319416 0.8038583 0.8398397
0.081268184 0.46148726 0.34199816 -0.5462782 0.68333375 -0.4843915 0.84117126 0.8848135
0.16943601 0.46291724 0.33735615 0.47920308 0.6990571 -0.5307387 0.84117126 0.84400606
0.17236646 0.24893808 0.72896624 0.87409425 -0.3227898 -0.36299607 0.45920292 0.60764885
0.081988044 0.24896811 0.7288636 -0.8733798 -0.31803462 -0.3688656 0.3763667 0.6097722
0.064944185 0.45409405 0.43752193 -0.69979036 0.7038123 0.1222366 0.30149984 0.87017334
0.1515937 0.9477624 -0.01779753 0.7748504 0.12662561 0.6193327 0.21865515 0.7818675
0.16506547 0.6687915 -0.11081797 0.72813404 -0.6275571 -0.2756681 0.1476669 0.09188068
0.16506547 0.7410114 0.084414035 0.65610147 -0.23209678 0.71809614 0.2860759 0.105794325
0.16506547 0.7410114 0.084414035 0.65610147 -0.23209678 0.71809614 0.2860759 0.92358935
0.08186746 0.31225517 0.8304931 -0.5781369 0.38219762 0.7208902 0.7389639 0.8894642
0.17224671 0.22584432 0.80401474 0.70608556 -0.20812337 0.6768515 0.7858481 0.8425799
0.17224588 0.31222516 0.8305958 0.5765418 0.38183004 0.7223611 0.7389639 0.8425799
0.08186829 0.22587433 0.80391204 -0.7081148 -0.20781232 0.67482406 0.34105918 0.55932
0.08198721 0.33534896 0.75544465 -0.7074734 0.6630821 0.24454755 0.32953504 0.6310317
0.17224671 0.22584432 0.80401474 0.70608556 -0.20812337 0.6768515 0.49180284 0.5518737
0.17236722 0.11218113 0.7309518 0.59678143 -0.4821249 -0.64141065 0.44840753 0.5400368
0.17224792 0.101474956 0.765744 0.5760189 -0.7220621 0.38318217 0.430826 0.5040431
0.0819888 0.11221115 0.730849 -0.5944635 -0.48164296 -0.6439202 0.37132475 0.5451555
0.08186829 0.22587433 0.80391204 -0.7081148 -0.20781232 0.67482406 0.6124313 0.8451601
0.17224792 0.101474956 0.765744 0.5760189 -0.7220621 0.38318217 0.6598046 0.91336703
0.17224671 0.22584432 0.80401474 0.70608556 -0.20812337 0.6768515 0.6598046 0.8451601
0.35065454 0.5427212 0.017048031 -0.57635695 -0.72212565 -0.3825538 0.84315014 0.9033946
0.4377456 0.57918453 0.096432626 0.6519092 -0.18885924 0.73440224 0.8011622 0.9453826
0.35065454 0.5746939 0.09820181 -0.576382 -0.26710454 0.7722946 0.84315014 0.9453826
0.4377456 0.57918453 0.096432626 0.6519092 -0.18885924 0.73440224 0.944185 0.015447527
0.35065454 0.5427212 0.017048031 -0.57635695 -0.72212565 -0.3825538 0.8309831 0.015731126
0.06488863 1.2276461 -0.18004145 0.70591974 -0.4388753 0.5559369 0.73058265 0.08831915
0.0558036 1.2915416 -0.2666178 0.8940731 -0.3711845 -0.2507096 0.6734016 0.11502963
0.05181505 1.3171546 -0.19278686 0.75813025 -0.06778682 0.64857036 0.72557235 0.14129996
0.0558036 1.2915416 -0.2666178 0.8940731 -0.3711845 -0.2507096 0.6724743 0.03183605
0.06488863 1.2078862 -0.24731082 0.70755744 -0.65940076 -0.25407314 0.70178497 0.06017278
0.08248773 1.4706373 -0.27329633 0.8367784 0.54296285 -0.07066249 0.6678499 0.24713355
0.083836816 1.3966211 -0.19675234 0.83785903 -0.082385056 0.53963417 0.7058802 0.19844893
0.08463453 1.3849525 -0.26626122 0.9900609 -0.13919272 0.020123998 0.66093487 0.1853128
0.072117515 1.4794525 -0.20276183 0.70597506 0.5431592 0.45450792 0.7167358 0.24787042
1.5070868e-15 1.5138148 -0.18382818 1.5786678e-07 0.81585515 0.5782563 0.7536398 0.2894143
0.08463453 1.3849525 -0.26626122 0.9900609 -0.13919272 0.020123998 0.98895353 0.6038948
0.076612994 1.458309 -0.34077236 0.77784866 0.39843893 -0.48600194 0.937366 0.6575769
0.08248773 1.4706373 -0.27329633 0.8367784 0.54296285 -0.07066249 0.9856959 0.6648637
0.08168473 1.3776631 -0.3378824 0.8748035 -0.087783165 -0.47645903 0.94034564 0.60364354
0.08248773 1.4706373 -0.27329633 0.8367784 0.54296285 -0.07066249 0.9709897 0.69161224
0.06282517 1.2989984 -0.33692718 0.6674806 -0.63152325 -0.39452252 0.93580574 0.5575707
0.0558036 1.2915416 -0.2666178 0.8940731 -0.3711845 -0.2507096 0.97472364 0.53771496
-0.16506547 0.7410114 0.084414035 -0.6561014 -0.23209676 0.71809614 0.6549308 0.4771778
-0.17525415 1.2578359 -0.12945506 -0.65599084 0.70488286 0.2698447 0.22796863 0.45889005
-0.12714657 1.2165023 -0.16146761 0.74278903 0.6126518 0.27004123 0.60600823 0.54656494
-0.12714657 1.2165023 -0.16146761 0.74278903 0.6126518 0.27004123 0.60600823 0.78575027
-0.33853805 0.89750123 -0.1192759 -0.74479324 -0.54956657 -0.37849656 0.8577151 0.9432503
-0.12714657 1.2165023 -0.16146761 0.74278903 0.6126518 0.27004123 0.9021865 0.8359125
-0.26880994 0.91596174 -0.05215165 0.686924 0.682315 0.25016347 0.8045036 0.30278814
-0.32247186 0.93552613 -0.059859574 -0.2168163 0.96628857 0.13884199 0.9266552 0.28991926
-0.26880994 0.91596174 -0.05215165 0.686924 0.682315 0.25016347 0.736069 0.931343
-0.0071096867 0.61035526 0.0076357126 0.67467326 -0.4698314 0.5692754 0.5976883 0.4902848
-0.15018186 0.6258218 0.06310016 -0.40084454 -0.36153814 0.8417921 0.6419246 0.11388135
-0.17597145 0.5161314 -0.4435138 -0.59331614 -0.690225 -0.41420466 0.6746401 0.892987
-0.0071087657 0.7949816 -0.043854058 0.6761599 0.6934847 0.24877073 0.87684965 0.46308342
-0.081275366 0.52916944 -0.48849022 0.5462852 -0.016622866 -0.8374343 0.39012724 0.915763
-0.08127611 0.6002163 -0.43605506 0.5462724 0.80513465 -0.23096503 0.5713913 0.9301957
-0.081275366 0.52916944 -0.48849022 0.5462852 -0.016622866 -0.8374343 0.8041271 0.8830663
-0.1722573 0.29767695 -0.024380304 -0.576556 0.12126766 0.80800825 0.7389639 0.8425799
-0.08187888 0.29774067 -0.024465881 0.5781229 0.122116715 0.80675983 0.29285827 0.5899557
-0.081877016 0.120324776 -0.1554052 0.5786927 -0.8065543 0.1207682 0.38590226 0.5129547
-0.17225653 0.22495894 -0.07804881 -0.7060889 -0.42038837 0.5698351 0.6598046 0.8451601
-0.43774557 0.57918435 0.096432626 -0.6519407 -0.18881406 0.7343859 0.8011622 0.9453826
-0.3506545 0.57469374 0.09820181 0.5763684 -0.2671358 0.7722939 0.77637696 0.029716685
-3.2816665e-15 1.2883854 -0.2867499 -5.7984932e-09 -0.78688043 -0.6171055 0.6778622 0.015398998
-0.08248773 1.4706373 -0.27329633 -0.8367784 0.5429629 -0.07066251 0.9856959 0.6648637
0.16728652 1.1036859 -0.043736823 0.7354776 0.17547259 0.6544326 0.18327053 0.6801523
0.3385381 0.897501 -0.11927581 0.7447934 -0.5495663 -0.37849656 0.8577151 0.9432503
0.19571123 1.216405 -0.24155599 0.12675633 0.632059 -0.76448315 0.852514 0.885585
0.2642222 0.8976059 -0.032469276 -0.27796328 -0.53102416 0.80046844 0.87283546 0.5411868
0.26678234 0.8591934 -0.0056019723 -0.70768327 0.17313892 0.68498707 0.7727077 0.25713372
0.3224719 0.91440004 -0.11348289 0.21682908 0.61191106 -0.7606249 0.766926 0.90048593
0.0071091377 0.77604866 0.045484424 -0.6746693 0.7338814 0.07899039 0.5976883 0.4902848
0.07871174 0.37407398 0.3126987 -0.49821162 -0.8465735 0.18734607 0.72388387 0.8437433
0.007109281 0.6314512 -0.08033192 -0.6761577 -0.17393762 -0.7159305 0.87684965 0.46308342
0.078711666 0.44756135 0.37664112 -0.49510083 -0.018260598 0.8686437 0.2866575 0.37759146
0.08186746 0.31225517 0.8304931 -0.5781369 0.38219762 0.7208902 0.6054267 0.58723795
0.081269 0.37709153 0.31602794 -0.5462712 -0.29281843 -0.78475803 0.8041271 0.8830663
0.08186829 0.22587433 0.80391204 -0.7081148 -0.20781232 0.67482406 0.7858481 0.8894642
0.08186746 0.31225517 0.8304931 -0.5781369 0.38219762 0.7208902 0.29285827 0.5899557
0.0818695 0.10150498 0.7656412 -0.57868433 -0.72115856 0.38086063 0.38590226 0.5129547
0.0818695 0.10150498 0.7656412 -0.57868433 -0.72115856 0.38086063 0.6124313 0.91336703
0.4377456 0.5472118 0.015278816 0.6519408 -0.6389864 -0.40825197 0.8011622 0.9033946
0.35065454 0.5746939 0.09820181 -0.576382 -0.26710454 0.7722946 0.9997091 0.038712308
0.35065454 0.5746939 0.09820181 -0.576382 -0.26710454 0.7722946 0.77637696 0.029716685
3 0 1 2
3 3 4 5
3 6 7 8
3 5 9 10
3 11 4 7
3 12 13 14
3 15 16 17
3 18 12 19
3 20 21 22
3 23 24 25
3 24 26 25
3 27 22 26
3 28 29 30
3 31 32 33
3 34 22 35
3 25 34 36
3 23 36 37
3 35 21 38
3 39 40 41
3 42 43 44
3 43 45 46
3 46 39 41
3 47 48 49
3 50 51 52
3 46 47 49
3 43 49 53
3 54 43 53
3 41 55 47
3 56 57 58
3 59 60 61
3 60 62 63
3 63 56 58
3 64 65 66
3 67 68 69
3 70 58 71
3 60 70 72
3 61 72 73
3 71 57 74
3 75 76 77
3 78 79 80
3 79 81 80
3 82 75 81
3 83 84 85
3 86 87 88
3 89 75 90
3 80 89 91
3 78 91 83
3 90 77 92
3 93 10 13
3 6 94 15
3 18 5 93
3 19 95 96
3 17 97 98
3 95 14 99
3 100 101 102
3 92 103 90
3 91 104 84
3 104 105 106
3 107 106 105
3 108 109 110
3 103 107 90
3 89 107 105
3 111 112 113
3 54 114 115
3 55 116 47
3 53 48 114
3 117 118 119
3 118 120 121
3 122 123 121
3 119 121 123
3 124 125 126
3 127 128 125
3 129 130 131
3 132 127 124
3 133 130 134
3 135 130 136
3 137 138 139
3 138 133 139
3 140 132 124
3 129 138 141
3 140 126 120
3 0 142 143
3 144 145 146
3 6 147 11
3 148 9 145
3 145 11 147
3 149 13 150
3 151 15 17
3 149 152 153
3 154 155 156
3 157 158 159
3 160 158 161
3 154 162 160
3 163 164 165
3 166 167 168
3 169 154 160
3 169 161 170
3 170 157 171
3 172 173 154
3 174 175 176
3 177 178 179
3 180 181 177
3 180 176 182
3 183 184 185
3 186 187 188
3 184 180 185
3 185 177 189
3 190 177 179
3 191 174 184
3 192 193 194
3 195 196 197
3 195 198 199
3 200 193 198
3 201 202 203
3 204 205 206
3 207 194 200
3 207 195 208
3 208 197 209
3 210 192 194
3 211 212 213
3 214 215 216
3 217 215 218
3 211 219 217
3 220 221 222
3 223 224 225
3 226 211 217
3 226 218 222
3 222 214 220
3 227 228 211
3 150 10 148
3 229 6 15
3 152 148 144
3 230 153 231
3 232 17 98
3 230 14 149
3 233 234 235
3 236 237 227
3 222 238 226
3 238 239 226
3 240 241 239
3 242 243 244
3 241 236 227
3 226 241 227
3 245 246 247
3 190 248 189
3 249 191 184
3 248 185 189
3 250 117 119
3 250 251 252
3 123 253 254
3 119 254 250
3 255 256 257
3 258 128 259
3 260 261 262
3 258 132 256
3 133 261 263
3 261 135 264
3 137 265 266
3 133 265 139
3 252 132 117
3 265 260 266
3 257 252 251
3 0 267 1
3 3 268 4
3 6 11 7
3 5 4 9
3 11 9 4
3 12 93 13
3 15 94 16
3 18 93 12
3 20 269 21
3 23 270 24
3 24 27 26
3 27 20 22
3 28 271 29
3 31 272 32
3 34 26 22
3 25 26 34
3 23 25 36
3 35 22 21
3 39 273 40
3 42 274 43
3 43 274 45
3 46 45 39
3 47 116 48
3 50 275 51
3 46 41 47
3 43 46 49
3 54 44 43
3 41 40 55
3 56 276 57
3 59 277 60
3 60 277 62
3 63 62 56
3 64 278 65
3 67 279 68
3 70 63 58
3 60 63 70
3 61 60 72
3 71 58 57
3 75 280 76
3 78 281 79
3 79 82 81
3 82 280 75
3 83 91 84
3 86 282 87
3 89 81 75
3 80 81 89
3 78 80 91
3 90 75 77
3 93 5 10
3 6 8 94
3 18 3 5
3 19 12 95
3 17 16 97
3 95 12 14
3 100 283 101
3 92 284 103
3 91 89 104
3 104 89 105
3 107 285 106
3 108 286 109
3 103 285 107
3 89 90 107
3 111 287 112
3 54 53 114
3 55 288 116
3 53 49 48
3 117 140 118
3 118 140 120
3 122 289 123
3 119 118 121
3 124 127 125
3 127 259 128
3 129 290 130
3 132 259 127
3 133 131 130
3 135 134 130
3 137 141 138
3 138 131 133
3 140 117 132
3 129 131 138
3 140 124 126
3 0 2 142
3 144 148 145
3 6 291 147
3 148 10 9
3 145 9 11
3 149 14 13
3 151 229 15
3 149 150 152
3 154 173 155
3 157 161 158
3 160 162 158
3 154 156 162
3 163 292 164
3 166 293 167
3 169 172 154
3 169 160 161
3 170 161 157
3 172 294 173
3 174 295 175
3 177 181 178
3 180 182 181
3 180 174 176
3 183 249 184
3 186 296 187
3 184 174 180
3 185 180 177
3 190 189 177
3 191 295 174
3 192 297 193
3 195 199 196
3 195 200 198
3 200 194 193
3 201 298 202
3 204 299 205
3 207 210 194
3 207 200 195
3 208 195 197
3 210 300 192
3 211 228 212
3 214 218 215
3 217 219 215
3 211 213 219
3 220 301 221
3 223 302 224
3 226 227 211
3 226 217 218
3 222 218 214
3 227 237 228
3 150 13 10
3 229 291 6
3 152 150 148
3 230 149 153
3 232 151 17
3 230 99 14
3 233 303 234
3 236 304 237
3 222 221 238
3 238 240 239
3 240 305 241
3 242 306 243
3 241 305 236
3 226 239 241
3 245 307 246
3 190 308 248
3 249 309 191
3 248 183 185
3 250 252 117
3 250 254 251
3 123 289 253
3 119 123 254
3 255 258 256
3 258 255 128
3 260 263 261
3 258 259 132
3 133 134 261
3 261 134 135
3 137 139 265
3 133 263 265
3 252 256 132
3 265 263 260
3 257 256 252
