ply
format ascii 1.0
comment Created in Blender version 4.2.3 LTS
element vertex 310
property float x
property float y
property float z
property float nx
property float ny
property float nz
property float s
property float t
element face 324
property list uchar uint vertex_indices
end_header
0 0.9275738 0.093893245 0 -0.7222928 0.69158745 0.7663531 0.47898173
-0.16506547 0.9587836 -0.11636691 -0.72813416 -0.48282954 -0.48651445 0.6549308 0.3384794
0 0.8921577 -0.11898083 -3.8423695e-09 -0.87972754 -0.47547826 0.77350754 0.3353719
-0.16728652 1.3388189 0.105457656 -0.73547757 -0.076626055 0.6732022 0.26357576 0.3470657
-0.17525415 1.517857 -0.07897974 -0.6682008 0.60597104 -0.4316329 0.121998765 0.4428514
-0.16728652 1.3438138 -0.13797554 -0.7461678 0.072214715 -0.6618298 0.1093092 0.32582945
0 1.3426706 0.13504395 1.505243e-08 -0.017290164 0.9998505 0.07601777 0.7222215
-0.17525415 1.51366 0.082210064 -0.6559917 0.55690724 0.5094401 0.14460748 0.56686234
-0.16728652 1.3388189 0.105457656 -0.73547757 -0.076626055 0.6732022 0.18327053 0.6801523
0 1.5375719 -0.09803893 1.9832103e-07 0.8134704 -0.5816063 0.002302988 0.47160363
0 1.3492733 -0.17125121 -2.5155782e-09 0.18957429 -0.9818664 0.00029080542 0.3350993
0 1.5375365 0.0879707 7.462805e-08 0.79520774 0.60633713 0.038243175 0.60447216
-0.15108268 1.0791842 -0.12890548 -0.78025776 -0.023341449 -0.6250225 0.12820496 0.17147292
0 1.1683034 -0.17719173 -4.9536655e-09 -0.039316095 -0.99922687 0.014971393 0.21670394
0 1.0500802 -0.16492875 2.463568e-09 -0.1565929 -0.98766327 0.026999382 0.13947701
0 1.1632094 0.09532488 3.3466353e-08 -0.09022687 0.99592125 0.12836884 0.83530915
-0.15108268 1.0878819 0.07417799 -0.7541991 0.08498117 0.6511236 0.24350977 0.8422973
0 1.0646639 0.097235486 -7.1676234e-09 0.03524352 0.99937886 0.15409969 0.8969822
-0.1515937 1.1842402 0.07243707 -0.77485025 -0.10920724 0.62264025 0.25539285 0.25656396
-0.15108268 1.0878819 0.07417799 -0.7541991 0.08498117 0.6511236 0.26358888 0.1933998
-0.12714657 1.4869376 -0.03727493 0.7427814 0.47104225 -0.47580984 0.6196952 0.6026646
-0.13962153 1.3965905 0.06637911 0.6895172 -0.14692639 0.70920986 0.6692974 0.5079186
-0.13962153 1.3965905 -0.06637939 0.6894914 -0.1469138 -0.70923764 0.6853681 0.59445703
-0.13962153 1.3965905 0.06637911 0.6895172 -0.14692639 0.70920986 0.67336816 0.8230269
-0.19571117 1.5162042 0.037274648 -0.12673989 0.8682956 0.4795831 0.6209623 0.7276958
-0.2617219 1.448709 0.06637911 -0.59718144 0.40562078 0.69198716 0.68631613 0.73504853
-0.2617219 1.448709 -0.06637939 -0.5972076 0.40562952 -0.69195944 0.68983865 0.66637886
-0.19571115 1.5162042 -0.037274934 -0.126755 0.86828995 -0.47958925 0.61758643 0.66560495
-0.26422215 1.1429529 0.040401362 0.2779411 -0.7874918 0.55009604 0.8997175 0.90124786
-0.33853805 1.1746746 -0.04040159 -0.744791 -0.37259495 -0.5535878 0.8577151 0.9432503
-0.2642221 1.1429529 -0.04040159 0.27796337 -0.78747845 -0.55010384 0.8577151 0.90124774
-0.19571117 1.5162042 0.037274648 -0.12673989 0.8682956 0.4795831 0.85251397 0.8359125
-0.12714657 1.4869376 -0.03727493 0.7427814 0.47104225 -0.47580984 0.9021865 0.885585
-0.19571115 1.5162042 -0.037274934 -0.126755 0.86828995 -0.47958925 0.852514 0.885585
-0.33853805 1.1746746 -0.04040159 -0.744791 -0.37259495 -0.5535878 0.8649301 0.66218543
-0.2642221 1.1429529 -0.04040159 0.27796337 -0.78747845 -0.55010384 0.86633 0.6017004
-0.33853805 1.1746746 0.040401362 -0.74479645 -0.37257197 0.55359596 0.8689993 0.7234328
-0.26422215 1.1429529 0.040401362 0.2779411 -0.7874918 0.55009604 0.87755597 0.78210783
-0.26422215 1.1429529 0.040401362 0.2779411 -0.7874918 0.55009604 0.87283546 0.5411868
-0.26880994 1.1672455 -0.028817553 0.68691903 0.54312813 -0.48286036 0.84625393 0.2900126
-0.2667823 1.0973653 0.051318265 0.707695 -0.08999488 0.7007629 0.7727077 0.25713372
-0.2667823 1.0973653 -0.051318444 0.70766896 -0.08998538 -0.70079046 0.83753383 0.24348773
-0.26880994 1.1672455 0.028817354 0.68692034 0.54313695 0.48284853 0.9694191 0.30146974
-0.36534548 1.1259935 0.051318265 -0.63407946 0.318581 0.7045917 0.9345659 0.24023636
-0.2667823 1.0973653 0.051318265 0.707695 -0.08999488 0.7007629 0.9997091 0.2515986
-0.32247186 1.1882735 0.028817357 -0.21682629 0.8481299 0.483386 0.9266552 0.28991926
-0.36534548 1.1259935 -0.051318444 -0.6341052 0.31858742 -0.70456564 0.8853561 0.24022861
-0.3580676 0.8977807 -0.025694825 0.66957426 -0.09628478 -0.73647785 0.8435138 0.09545268
-0.43774557 0.7994448 -0.043612543 -0.6519413 -0.44486392 -0.6140592 0.8874222 0.009062931
-0.40741754 0.91211474 -0.025694821 -0.70986044 0.1744646 -0.6823931 0.88508433 0.09794839
-0.26880994 1.1672455 0.028817354 0.68692034 0.54313695 0.48284853 0.736069 0.931343
-0.32247186 1.1882735 -0.02881755 -0.21681611 0.8481386 -0.48337558 0.766926 0.90048593
-0.32247186 1.1882735 0.028817357 -0.21682629 0.8481299 0.483386 0.766926 0.931343
-0.40741754 0.91211474 0.025694683 -0.7098574 0.1744634 0.6823965 0.9257816 0.10006681
-0.35806763 0.8977807 0.02569468 0.66956466 -0.09628494 0.7364865 0.96358526 0.10151185
-0.35806763 0.8977807 0.02569468 0.66956466 -0.09628494 0.7364865 0.8027841 0.09741162
-0.0071092118 0.9567312 -0.11253059 0.6761601 0.42592263 -0.6011635 0.62205243 0.3565718
-0.01674613 0.7894948 0.074689835 0.70306253 -0.13044299 0.69906205 0.48139435 0.46588585
-0.01674613 0.78891283 -0.11019504 0.68289953 -0.16571003 -0.71146923 0.5085749 0.34592855
-0.007109227 0.9567312 0.07914165 0.67466897 0.42213875 0.60549206 0.59803885 0.014488608
-0.1807585 0.8389055 0.074689835 -0.72521114 0.026760262 0.6880064 0.52641696 0.13356152
-0.01674613 0.7894948 0.074689835 0.70306253 -0.13044299 0.69906205 0.4811022 0.0299672
-0.15018204 1.0143126 -0.11253062 -0.4007759 0.7165297 -0.5709325 0.6543491 0.24770993
-0.1807585 0.8383235 -0.11019504 -0.7176373 0.0007976376 -0.6964166 0.5365114 0.24688053
-0.17596605 0.4968555 0.04870582 -0.5933067 -0.5844184 0.55357224 0.6746401 0.892987
-0.078713864 0.49128285 -0.048705887 0.4982014 -0.6970517 -0.5156689 0.72388387 0.8437433
-0.078713864 0.49128285 0.04870582 0.4951101 -0.6672754 0.55642563 0.72388387 0.892987
-0.007109227 0.9567312 0.07914165 0.67466897 0.42213875 0.60549206 0.87684965 0.33537194
-0.15018204 1.0143126 -0.11253062 -0.4007759 0.7165297 -0.5709325 0.77408904 0.46308342
-0.15018204 1.0143126 0.07914163 -0.40084767 0.7137281 0.5743809 0.7740891 0.33537194
-0.17596605 0.4968555 -0.048705887 -0.6011144 -0.61108035 -0.51501673 0.31195444 0.24465671
-0.078713864 0.49128285 -0.048705887 0.4982014 -0.6970517 -0.5156689 0.30941707 0.31336898
-0.17596605 0.4968555 0.04870582 -0.5933067 -0.5844184 0.55357224 0.31708434 0.17510046
-0.078713864 0.49128285 0.04870582 0.4951101 -0.6672754 0.55642563 0.31693092 0.102166414
-0.078713864 0.49128285 0.04870582 0.4951101 -0.6672754 0.55642563 0.2866575 0.37759146
-0.06494776 0.41730514 -0.06517906 0.6997914 0.090162665 -0.70863444 0.38355708 0.8555255
-0.08127056 0.5107783 0.044150658 0.5462753 0.6639399 0.5106536 0.3310726 0.9301957
-0.06494776 0.41730514 0.06517907 0.69979775 0.09015717 0.7086289 0.30149984 0.87017334
-0.06494776 0.41730514 0.06517907 0.69979775 0.09015717 0.7086289 0.5990978 0.87015915
-0.16943833 0.5156355 0.044150658 -0.47920614 0.71286654 0.51203793 0.51263595 0.917676
-0.19529699 0.41885445 0.06517907 -0.70745736 0.111185975 0.6979555 0.5195659 0.8561164
-0.19529699 0.41885445 -0.06517906 -0.7074814 0.11118458 -0.69793135 0.45244485 0.85221684
-0.16943833 0.5156355 -0.04415065 -0.47918984 0.71288186 -0.5120318 0.45149747 0.9174901
-0.08199423 0.078520134 0.04518916 0.7074605 -0.038721643 0.7056914 0.59300905 0.64423925
-0.17225374 -0.00010814733 0.04518916 -0.5765607 -0.57812274 0.5773664 0.54628825 0.575235
-0.08187532 -1.0541883e-06 0.04518916 0.5781375 -0.57657915 0.57733303 0.6054267 0.58723795
-0.08127056 0.5107783 0.044150658 0.5462753 0.6639399 0.5106536 0.84117126 0.8848135
-0.16943833 0.5156355 -0.04415065 -0.47918984 0.71288186 -0.5120318 0.8038583 0.8398397
-0.16943833 0.5156355 0.044150658 -0.47920614 0.71286654 0.51203793 0.84117126 0.84400606
-0.17237265 0.07841304 -0.045189105 -0.8740916 0.2520141 -0.41527426 0.45920292 0.60764885
-0.08199423 0.078520134 -0.045189105 0.8733875 0.2590017 -0.4124469 0.3763667 0.6097722
-0.17237265 0.07841304 0.04518916 -0.7055061 -0.0459425 0.7072132 0.5248512 0.6326787
-0.08199423 0.078520134 0.04518916 0.7074605 -0.038721643 0.7056914 0.32953504 0.6310317
-0.1515937 1.1848783 -0.13968693 -0.76522905 -0.05804412 -0.64113617 0.11514231 0.2415975
-0.1515937 1.1842402 0.07243707 -0.77485025 -0.10920724 0.62264025 0.21865515 0.7818675
-0.16506547 0.9587836 -0.11636691 -0.72813416 -0.48282954 -0.48651445 0.1476669 0.09188068
-0.16506547 0.95441353 0.09174881 -0.65610147 -0.4791637 0.58303785 0.2860759 0.105794325
-0.16506547 0.95441353 0.09174881 -0.65610147 -0.4791637 0.58303785 0.2860759 0.92358935
0 0.9275738 0.093893245 0 -0.7222928 0.69158745 0.1894717 0.98296404
0 0.8921577 -0.11898083 -3.8423695e-09 -0.87972754 -0.47547826 0.04561563 0.031540826
-0.17225374 -0.00010814733 0.04518916 -0.5765607 -0.57812274 0.5773664 0.7389639 0.8425799
-0.08187532 -1.0541462e-06 -0.045189105 0.708105 -0.7061071 -0.00014325876 0.7858481 0.8894642
-0.08187532 -1.0541883e-06 0.04518916 0.5781375 -0.57657915 0.57733303 0.7389639 0.8894642
-0.08187532 -1.0541462e-06 -0.045189105 0.708105 -0.7061071 -0.00014325876 0.34105918 0.55932
-0.17225374 -0.00010814729 -0.045189105 -0.70608616 -0.70812595 0.00014317945 0.49180284 0.5518737
-0.17237265 0.036293928 -0.17531388 -0.5967707 0.4712489 -0.64945304 0.44840753 0.5400368
-0.17225374 -0.00010814723 -0.17531388 -0.57601875 -0.57858866 -0.5774406 0.430826 0.5040431
-0.08199423 0.036401022 -0.17531388 0.59447443 0.473783 -0.6497153 0.37132475 0.5451555
-0.17225374 -0.00010814729 -0.045189105 -0.70608616 -0.70812595 0.00014317945 0.6598046 0.8451601
-0.08187532 -1.0540856e-06 -0.17531388 0.5786844 -0.57612604 -0.57723755 0.6124313 0.91336703
-0.08187532 -1.0541462e-06 -0.045189105 0.708105 -0.7061071 -0.00014325876 0.6124313 0.8451601
-0.43774557 0.7994448 0.04361241 -0.6519097 -0.444912 0.61405796 0.8011622 0.9453826
-0.3506545 0.7946182 -0.043612555 0.57636803 -0.5316303 -0.62062 0.84315014 0.9033946
-0.3506545 0.7946182 0.0436124 0.57636964 -0.5316081 0.62063754 0.84315014 0.9453826
-0.43774557 0.7994448 0.04361241 -0.6519097 -0.444912 0.61405796 0.944185 0.015447527
-0.3506545 0.7946182 0.0436124 0.57636964 -0.5316081 0.62063754 0.9997091 0.038712308
-0.3506545 0.7946182 0.0436124 0.57636964 -0.5316081 0.62063754 0.77637696 0.029716685
-0.3506545 0.7946182 -0.043612555 0.57636803 -0.5316303 -0.62062 0.8309831 0.015731126
-3.5527137e-15 1.5997348 0.046493996 0 -0.016262338 0.99986786 0.76689875 0.14026459
-0.06488863 1.5157229 0.03599097 -0.70591784 -0.48129094 0.5196529 0.73058265 0.08831915
-3.5527137e-15 1.5226017 0.06876561 -4.1022177e-09 -0.4103834 0.91191316 0.7721262 0.081679724
-0.0558036 1.5862374 -0.045285042 -0.8940732 -0.3502897 -0.27916014 0.6734016 0.11502963
-0.06488863 1.5013214 -0.032625522 -0.70755786 -0.6373456 -0.305209 0.70178497 0.06017278
-0.0558036 1.5862374 -0.045285042 -0.8940732 -0.3502897 -0.27916014 0.6724743 0.03183605
-3.5527137e-15 1.4944422 -0.06540017 -1.1344959e-07 -0.71593297 -0.69816905 0.7180758 0.019367017
-0.083836816 1.6854889 0.032638043 -0.8378591 -0.12462375 0.5314708 0.7058802 0.19844893
-0.08248773 1.7653029 -0.03783978 -0.83677834 0.5468415 -0.027687034 0.6678499 0.24713355
-0.08463453 1.6793302 -0.037573863 -0.9900608 -0.14034532 0.009100659 0.66093487 0.1853128
-0.072117515 1.7685364 0.03316984 -0.70597494 0.50568193 0.4958681 0.7167358 0.24787042
-3.5527137e-15 1.8037647 -0.053715844 -1.283175e-07 0.9997472 -0.022485577 0.67497474 0.31789806
-0.08463453 1.6793302 -0.037573863 -0.9900608 -0.14034532 0.009100659 0.98895353 0.6038948
-0.076612994 1.7583264 -0.10607708 -0.7778487 0.43547246 -0.45311725 0.937366 0.6575769
-0.08168473 1.6777033 -0.10954664 -0.87480336 -0.049991615 -0.48189214 0.94034564 0.60364354
-3.5527137e-15 1.7018714 0.071035266 3.2759296e-08 -0.030631382 0.99953073 0.76745397 0.21875587
-3.5527137e-15 1.6694903 -0.16052192 -1.1732084e-08 -0.01697907 -0.99985594 0.8781377 0.5899775
-3.5527137e-15 1.8038217 -0.13561568 -2.9558174e-07 0.7820941 -0.62316036 0.8781377 0.68492174
-3.5527137e-15 1.8037647 -0.053715844 -1.283175e-07 0.9997472 -0.022485577 0.91705835 0.7264503
-0.08248773 1.7653029 -0.03783978 -0.83677834 0.5468415 -0.027687034 0.9709897 0.69161224
-3.5527137e-15 1.5846763 -0.06560315 -1.9714882e-07 -0.7358416 -0.6771538 0.9444656 0.5079186
-0.06282517 1.5992076 -0.11478889 -0.6674815 -0.5984944 -0.44302696 0.93580574 0.5575707
-3.5527137e-15 1.5901123 -0.14199734 -3.6157022e-09 -0.7150511 -0.6990722 0.8988447 0.53607905
-0.05181505 1.6059572 0.030333564 -0.7581303 -0.11864915 0.64121836 0.72557235 0.14129996
-0.0558036 1.5862374 -0.045285042 -0.8940732 -0.3502897 -0.27916014 0.97472364 0.53771496
0.16506547 0.9587836 -0.11636691 0.72813416 -0.48282957 -0.48651448 0.6549308 0.3384794
0.16506547 0.95441353 0.09174881 0.6561014 -0.47916368 0.5830379 0.6549308 0.4771778
0.16728652 1.3388189 0.105457656 0.7354776 -0.076626055 0.6732022 0.26357576 0.3470657
0.17525415 1.517857 -0.07897974 0.66820085 0.605971 -0.43163288 0.121998765 0.4428514
0.17525415 1.51366 0.082210064 0.6559916 0.5569073 0.5094402 0.22796863 0.45889005
0.17525415 1.51366 0.082210064 0.6559916 0.5569073 0.5094402 0.14460748 0.56686234
0.16728652 1.3438138 -0.13797554 0.7461678 0.07221472 -0.6618298 0.1093092 0.32582945
0.15108268 1.0791842 -0.12890548 0.78025776 -0.023341449 -0.6250225 0.12820496 0.17147292
0.1515937 1.1848783 -0.13968693 0.76522905 -0.05804412 -0.64113617 0.11514231 0.2415975
0.15108268 1.0878819 0.07417799 0.7541991 0.08498118 0.65112364 0.24350977 0.8422973
0.1515937 1.1842402 0.07243707 0.77485037 -0.10920726 0.62264013 0.25539285 0.25656396
0.15108268 1.0878819 0.07417799 0.7541991 0.08498118 0.65112364 0.26358888 0.1933998
0.1396216 1.3965902 0.066379115 -0.6895026 -0.14691478 0.7092265 0.6692974 0.5079186
0.12714665 1.4869374 -0.037274934 -0.74278545 0.4710275 -0.47581816 0.6196952 0.6026646
0.1396216 1.3965902 -0.0663794 -0.68950605 -0.14692564 -0.70922095 0.6853681 0.59445703
0.1396216 1.3965902 0.066379115 -0.6895026 -0.14691478 0.7092265 0.67336816 0.8230269
0.19571124 1.516204 0.03727465 0.12675221 0.8682893 0.47959104 0.6209623 0.7276958
0.12714665 1.4869374 0.037274655 -0.7427863 0.4710375 0.4758069 0.60600823 0.78575027
0.26172197 1.4487088 -0.0663794 0.5972073 0.4056297 -0.69195956 0.68983865 0.66637886
0.26172197 1.4487088 0.066379115 0.59718126 0.4056209 0.69198716 0.68631613 0.73504853
0.19571123 1.516204 -0.037274938 0.12674421 0.86829644 -0.47958034 0.61758643 0.66560495
0.2642222 1.1429527 0.040401366 -0.27794573 -0.78749156 0.5500938 0.8997175 0.90124786
0.3385381 1.1746744 -0.040401593 0.7447909 -0.37259498 -0.55358785 0.8577151 0.9432503
0.3385381 1.1746744 0.040401366 0.74479693 -0.37257123 0.5535957 0.8997175 0.9432503
0.19571123 1.516204 -0.037274938 0.12674421 0.86829644 -0.47958034 0.852514 0.885585
0.12714665 1.4869374 0.037274655 -0.7427863 0.4710375 0.4758069 0.9021865 0.8359125
0.19571124 1.516204 0.03727465 0.12675221 0.8682893 0.47959104 0.85251397 0.8359125
0.3385381 1.1746744 -0.040401593 0.7447909 -0.37259498 -0.55358785 0.8649301 0.66218543
0.3385381 1.1746744 0.040401366 0.74479693 -0.37257123 0.5535957 0.8689993 0.7234328
0.2642222 1.1429527 0.040401366 -0.27794573 -0.78749156 0.5500938 0.87755597 0.78210783
0.26422215 1.1429527 -0.040401593 -0.2779597 -0.78747857 -0.5501055 0.86633 0.6017004
0.26678234 1.0973654 0.051318265 -0.7076804 -0.08998323 0.7007792 0.7727077 0.25713372
0.26880997 1.1672456 -0.028817553 -0.6869194 0.54312783 -0.4828603 0.84625393 0.2900126
0.26678234 1.0973654 -0.051318444 -0.7076831 -0.08999733 -0.70077467 0.83753383 0.24348773
0.3653455 1.1259936 0.051318265 0.6340791 0.31858164 0.70459175 0.9345659 0.24023636
0.26880997 1.1672456 0.028817354 -0.6869207 0.54313666 0.4828485 0.9694191 0.30146974
0.26678234 1.0973654 0.051318265 -0.7076804 -0.08998323 0.7007792 0.9997091 0.2515986
0.3653455 1.1259936 -0.051318444 0.6341052 0.31858736 -0.70456564 0.8853561 0.24022861
0.3224719 1.1882737 0.028817357 0.21682529 0.8481301 0.48338613 0.9266552 0.28991926
0.3224719 1.1882737 -0.02881755 0.21681648 0.8481381 -0.48337615 0.88678086 0.28448904
0.4377456 0.7994449 -0.043612543 0.65190977 -0.44491193 -0.61405784 0.8874222 0.009062931
0.35806763 0.89778084 -0.025694825 -0.6695727 -0.09628329 -0.73647946 0.8435138 0.09545268
0.40741757 0.91211486 -0.025694821 0.7098554 0.17446311 -0.68239874 0.88508433 0.09794839
0.3224719 1.1882737 -0.02881755 0.21681648 0.8481381 -0.48337615 0.766926 0.90048593
0.26880997 1.1672456 0.028817354 -0.6869207 0.54313666 0.4828485 0.736069 0.931343
0.3224719 1.1882737 0.028817357 0.21682529 0.8481301 0.48338613 0.766926 0.931343
0.40741757 0.91211486 0.025694683 0.7098622 0.174465 0.6823911 0.9257816 0.10006681
0.35806766 0.89778084 0.02569468 -0.66956633 -0.096286304 0.73648477 0.96358526 0.10151185
0.01674611 0.7894948 0.074689835 -0.70306253 -0.13044296 0.69906205 0.48139435 0.46588585
0.007109191 0.9567312 -0.11253058 -0.6761585 0.42593667 -0.60115534 0.62205243 0.3565718
0.01674611 0.78891283 -0.11019504 -0.68289953 -0.16571 -0.71146923 0.5085749 0.34592855
0.18075849 0.8389055 0.074689835 0.72521114 0.026760332 0.68800634 0.52641696 0.13356152
0.007109206 0.9567312 0.079141654 -0.6746704 0.4221246 0.60550034 0.59803885 0.014488608
0.01674611 0.7894948 0.074689835 -0.70306253 -0.13044296 0.69906205 0.4811022 0.0299672
0.15018201 1.0143126 -0.11253063 0.40079236 0.71651405 -0.5709406 0.6543491 0.24770993
0.15018201 1.0143126 0.079141624 0.40083107 0.713744 0.5743727 0.6419246 0.11388135
0.18075849 0.8383235 -0.11019504 0.7176373 0.00079773524 -0.6964166 0.5365114 0.24688053
0.07871384 0.49128285 -0.048705883 -0.49820134 -0.6970517 -0.5156689 0.72388387 0.8437433
0.17596604 0.4968555 0.048705824 0.5933068 -0.5844185 0.55357224 0.6746401 0.892987
0.07871384 0.49128285 0.048705824 -0.49511003 -0.66727555 0.5564256 0.72388387 0.892987
0.15018201 1.0143126 0.079141624 0.40083107 0.713744 0.5743727 0.7740891 0.33537194
0.007109191 0.9567312 -0.11253058 -0.6761585 0.42593667 -0.60115534 0.87684965 0.46308342
0.007109206 0.9567312 0.079141654 -0.6746704 0.4221246 0.60550034 0.87684965 0.33537194
0.17596604 0.4968555 -0.048705883 0.60111433 -0.61108035 -0.5150168 0.31195444 0.24465671
0.17596604 0.4968555 0.048705824 0.5933068 -0.5844185 0.55357224 0.31708434 0.17510046
0.07871384 0.49128285 0.048705824 -0.49511003 -0.66727555 0.5564256 0.31693092 0.102166414
0.07871384 0.49128285 -0.048705883 -0.49820134 -0.6970517 -0.5156689 0.30941707 0.31336898
0.06494774 0.4173051 0.065179065 -0.69980705 0.09015925 0.7086194 0.30149984 0.87017334
0.08127054 0.51077825 -0.044150647 -0.5462836 0.663926 -0.5106628 0.39012724 0.915763
0.06494774 0.4173051 -0.06517905 -0.69978184 0.09016059 -0.7086441 0.38355708 0.8555255
0.06494774 0.4173051 0.065179065 -0.69980705 0.09015925 0.7086194 0.5990978 0.87015915
0.1694383 0.51563543 0.044150654 0.4792058 0.7128667 0.51203805 0.51263595 0.917676
0.08127054 0.51077825 0.044150654 -0.54627305 0.6639409 0.51065475 0.5713913 0.9301957
0.19529696 0.41885442 -0.06517905 0.7074814 0.11118459 -0.6979313 0.45244485 0.85221684
0.19529696 0.41885442 0.065179065 0.70745736 0.11118612 0.69795537 0.5195659 0.8561164
0.1694383 0.51563543 -0.044150647 0.4791899 0.7128818 -0.51203185 0.45149747 0.9174901
0.081994206 0.07852013 0.045189157 -0.7074606 -0.03872162 0.7056913 0.59300905 0.64423925
0.17225371 -0.00010814735 0.045189157 0.57656074 -0.57812274 0.5773664 0.54628825 0.575235
0.17237262 0.07841303 0.045189157 0.705506 -0.045942526 0.7072133 0.5248512 0.6326787
0.1694383 0.51563543 -0.044150647 0.4791899 0.7128818 -0.51203185 0.8038583 0.8398397
0.08127054 0.51077825 0.044150654 -0.54627305 0.6639409 0.51065475 0.84117126 0.8848135
0.1694383 0.51563543 0.044150654 0.4792058 0.7128667 0.51203805 0.84117126 0.84400606
0.17237262 0.07841303 -0.0451891 0.8740916 0.25201407 -0.41527432 0.45920292 0.60764885
0.081994206 0.07852013 0.045189157 -0.7074606 -0.03872162 0.7056913 0.32953504 0.6310317
0.081994206 0.07852013 -0.0451891 -0.8733875 0.2590017 -0.41244695 0.3763667 0.6097722
0.1515937 1.1842402 0.07243707 0.77485037 -0.10920726 0.62264013 0.21865515 0.7818675
0.16506547 0.9587836 -0.11636691 0.72813416 -0.48282957 -0.48651448 0.1476669 0.09188068
0.16506547 0.95441353 0.09174881 0.6561014 -0.47916368 0.5830379 0.2860759 0.105794325
0.16506547 0.95441353 0.09174881 0.6561014 -0.47916368 0.5830379 0.2860759 0.92358935
0.081875294 -1.0541933e-06 -0.0451891 -0.7081051 -0.7061071 -0.0001432716 0.7858481 0.8894642
0.17225371 -0.00010814735 0.045189157 0.57656074 -0.57812274 0.5773664 0.7389639 0.8425799
0.081875294 -1.0541933e-06 0.045189157 -0.57813764 -0.5765791 0.57733303 0.7389639 0.8894642
0.081875294 -1.0541933e-06 -0.0451891 -0.7081051 -0.7061071 -0.0001432716 0.34105918 0.55932
0.17225371 -0.00010814735 -0.0451891 0.7060862 -0.70812595 0.0001432057 0.49180284 0.5518737
0.17237262 0.036293924 -0.17531386 0.59677064 0.47124887 -0.6494531 0.44840753 0.5400368
0.17225371 -0.00010814735 -0.17531386 0.5760187 -0.5785886 -0.5774406 0.430826 0.5040431
0.081994206 0.03640102 -0.17531386 -0.59447443 0.4737829 -0.6497153 0.37132475 0.5451555
0.081875294 -1.0541933e-06 -0.17531386 -0.5786844 -0.5761261 -0.57723755 0.6124313 0.91336703
0.17225371 -0.00010814735 -0.0451891 0.7060862 -0.70812595 0.0001432057 0.6598046 0.8451601
0.081875294 -1.0541933e-06 -0.0451891 -0.7081051 -0.7061071 -0.0001432716 0.6124313 0.8451601
0.35065454 0.7946183 0.0436124 -0.57635623 -0.53163636 0.62062573 0.84315014 0.9453826
0.4377456 0.7994449 -0.043612543 0.65190977 -0.44491193 -0.61405784 0.8011622 0.9033946
0.4377456 0.7994449 0.04361241 0.6519411 -0.44486377 0.61405945 0.8011622 0.9453826
0.4377456 0.7994449 0.04361241 0.6519411 -0.44486377 0.61405945 0.944185 0.015447527
0.35065454 0.7946183 0.0436124 -0.57635623 -0.53163636 0.62062573 0.77637696 0.029716685
0.35806766 0.89778084 0.02569468 -0.66956633 -0.096286304 0.73648477 0.8027841 0.09741162
0.06488863 1.5157229 0.03599097 0.70591784 -0.48129094 0.51965296 0.73058265 0.08831915
0.0558036 1.5862374 -0.045285042 0.8940731 -0.35028967 -0.27916023 0.6734016 0.11502963
0.05181505 1.6059572 0.030333564 0.7581302 -0.11864917 0.64121836 0.72557235 0.14129996
0.0558036 1.5862374 -0.045285042 0.8940731 -0.35028967 -0.27916023 0.6724743 0.03183605
0.06488863 1.5013214 -0.032625522 0.70755786 -0.63734555 -0.30520895 0.70178497 0.06017278
0.08248773 1.7653029 -0.03783978 0.83677834 0.5468415 -0.027687032 0.6678499 0.24713355
0.083836816 1.6854889 0.032638043 0.837859 -0.12462385 0.53147084 0.7058802 0.19844893
0.08463453 1.6793302 -0.037573863 0.9900608 -0.14034538 0.009100657 0.66093487 0.1853128
0.072117515 1.7685364 0.03316984 0.705975 0.50568193 0.4958681 0.7167358 0.24787042
-3.5527137e-15 1.8013011 0.0547506 1.4955816e-07 0.76778597 0.6407064 0.7536398 0.2894143
0.08463453 1.6793302 -0.037573863 0.9900608 -0.14034538 0.009100657 0.98895353 0.6038948
0.076612994 1.7583264 -0.10607708 0.7778487 0.43547258 -0.45311725 0.937366 0.6575769
0.08248773 1.7653029 -0.03783978 0.83677834 0.5468415 -0.027687032 0.9856959 0.6648637
0.08168473 1.6777033 -0.10954664 0.87480336 -0.04999163 -0.48189208 0.94034564 0.60364354
0.08248773 1.7653029 -0.03783978 0.83677834 0.5468415 -0.027687032 0.9709897 0.69161224
0.06282517 1.5992076 -0.11478889 0.6674815 -0.59849447 -0.44302705 0.93580574 0.5575707
0.0558036 1.5862374 -0.045285042 0.8940731 -0.35028967 -0.27916023 0.97472364 0.53771496
-0.16506547 0.95441353 0.09174881 -0.65610147 -0.4791637 0.58303785 0.6549308 0.4771778
-0.17525415 1.51366 0.082210064 -0.6559917 0.55690724 0.5094401 0.22796863 0.45889005
-0.12714657 1.4869376 0.03727465 0.7427893 0.47102407 0.47581556 0.60600823 0.54656494
-0.12714657 1.4869376 0.03727465 0.7427893 0.47102407 0.47581556 0.60600823 0.78575027
-0.33853805 1.1746746 0.040401362 -0.74479645 -0.37257197 0.55359596 0.8997175 0.9432503
-0.12714657 1.4869376 0.03727465 0.7427893 0.47102407 0.47581556 0.9021865 0.8359125
-0.26880994 1.1672455 0.028817354 0.68692034 0.54313695 0.48284853 0.8045036 0.30278814
-0.32247186 1.1882735 -0.02881755 -0.21681611 0.8481386 -0.48337558 0.88678086 0.28448904
-0.26880994 1.1672455 -0.028817553 0.68691903 0.54312813 -0.48286036 0.736069 0.90048593
-0.007109227 0.9567312 0.07914165 0.67466897 0.42213875 0.60549206 0.5976883 0.4902848
-0.15018204 1.0143126 0.07914163 -0.40084767 0.7137281 0.5743809 0.6419246 0.11388135
-0.17596605 0.4968555 -0.048705887 -0.6011144 -0.61108035 -0.51501673 0.6746401 0.8437433
-0.0071092118 0.9567312 -0.11253059 0.6761601 0.42592263 -0.6011635 0.87684965 0.46308342
-0.08127056 0.5107783 -0.04415065 0.5462817 0.6639268 -0.5106639 0.39012724 0.915763
-0.08127056 0.5107783 0.044150658 0.5462753 0.6639399 0.5106536 0.5713913 0.9301957
-0.08127056 0.5107783 -0.04415065 0.5462817 0.6639268 -0.5106639 0.8041271 0.8830663
-0.17225374 -0.00010814729 -0.045189105 -0.70608616 -0.70812595 0.00014317945 0.7858481 0.8425799
-0.08187532 -1.0541883e-06 0.04518916 0.5781375 -0.57657915 0.57733303 0.29285827 0.5899557
-0.08187532 -1.0540856e-06 -0.17531388 0.5786844 -0.57612604 -0.57723755 0.38590226 0.5129547
-0.17225374 -0.00010814723 -0.17531388 -0.57601875 -0.57858866 -0.5774406 0.6598046 0.91336703
-0.43774557 0.7994448 -0.043612543 -0.6519413 -0.44486392 -0.6140592 0.8011622 0.9033946
-3.5527137e-15 1.5846763 -0.06560315 -1.9714882e-07 -0.7358416 -0.6771538 0.6778622 0.015398998
-0.08248773 1.7653029 -0.03783978 -0.83677834 0.5468415 -0.027687034 0.9856959 0.6648637
0.16728652 1.3388189 0.105457656 0.7354776 -0.076626055 0.6732022 0.18327053 0.6801523
0.12714665 1.4869374 0.037274655 -0.7427863 0.4710375 0.4758069 0.60600823 0.54656494
0.26422215 1.1429527 -0.040401593 -0.2779597 -0.78747857 -0.5501055 0.8577151 0.90124774
0.12714665 1.4869374 -0.037274934 -0.74278545 0.4710275 -0.47581816 0.9021865 0.885585
0.2642222 1.1429527 0.040401366 -0.27794573 -0.78749156 0.5500938 0.87283546 0.5411868
0.26880997 1.1672456 0.028817354 -0.6869207 0.54313666 0.4828485 0.8045036 0.30278814
0.35065454 0.7946183 -0.043612555 -0.5763814 -0.53160185 -0.620632 0.8309831 0.015731126
0.26880997 1.1672456 -0.028817553 -0.6869194 0.54312783 -0.4828603 0.736069 0.90048593
0.007109206 0.9567312 0.079141654 -0.6746704 0.4221246 0.60550034 0.5976883 0.4902848
0.17596604 0.4968555 -0.048705883 0.60111433 -0.61108035 -0.5150168 0.6746401 0.8437433
0.15018201 1.0143126 -0.11253063 0.40079236 0.71651405 -0.5709406 0.77408904 0.46308342
0.07871384 0.49128285 0.048705824 -0.49511003 -0.66727555 0.5564256 0.2866575 0.37759146
0.08127054 0.51077825 0.044150654 -0.54627305 0.6639409 0.51065475 0.3310726 0.9301957
0.081875294 -1.0541933e-06 0.045189157 -0.57813764 -0.5765791 0.57733303 0.6054267 0.58723795
0.08127054 0.51077825 -0.044150647 -0.5462836 0.663926 -0.5106628 0.8041271 0.8830663
0.17225371 -0.00010814735 -0.0451891 0.7060862 -0.70812595 0.0001432057 0.7858481 0.8425799
0.081875294 -1.0541933e-06 0.045189157 -0.57813764 -0.5765791 0.57733303 0.29285827 0.5899557
0.081875294 -1.0541933e-06 -0.17531386 -0.5786844 -0.5761261 -0.57723755 0.38590226 0.5129547
0.17225371 -0.00010814735 -0.17531386 0.5760187 -0.5785886 -0.5774406 0.6598046 0.91336703
0.35065454 0.7946183 -0.043612555 -0.5763814 -0.53160185 -0.620632 0.84315014 0.9033946
0.35065454 0.7946183 0.0436124 -0.57635623 -0.53163636 0.62062573 0.9997091 0.038712308
3 0 1 2
3 3 4 5
3 6 7 8
3 5 9 10
3 11 4 7
3 12 13 14
3 15 16 17
3 18 12 19
3 20 21 22
3 23 24 25
3 24 26 25
3 27 22 26
3 28 29 30
3 31 32 33
3 34 22 35
3 25 34 36
3 23 36 37
3 22 38 35
3 39 40 41
3 42 43 44
3 45 46 43
3 46 39 41
3 47 48 49
3 50 51 52
3 46 47 49
3 43 49 53
3 54 43 53
3 41 55 47
3 56 57 58
3 59 60 61
3 60 62 63
3 63 56 58
3 64 65 66
3 67 68 69
3 70 58 71
3 60 70 72
3 61 72 73
3 71 57 74
3 75 76 77
3 78 79 80
3 79 81 80
3 82 75 81
3 83 84 85
3 86 87 88
3 89 75 90
3 80 89 91
3 78 91 83
3 75 92 90
3 93 10 13
3 6 94 15
3 18 5 93
3 19 95 96
3 17 97 98
3 95 14 99
3 100 101 102
3 92 103 90
3 89 84 91
3 104 105 106
3 107 106 105
3 108 109 110
3 103 107 90
3 89 107 105
3 111 112 113
3 54 114 115
3 47 116 117
3 49 114 53
3 118 119 120
3 119 121 122
3 123 124 122
3 120 122 124
3 125 126 127
3 128 129 126
3 130 131 132
3 133 128 125
3 134 131 135
3 136 131 137
3 138 139 140
3 139 134 140
3 141 133 125
3 130 139 142
3 141 127 121
3 0 143 144
3 145 146 147
3 6 148 11
3 149 9 146
3 146 11 148
3 150 13 151
3 152 15 17
3 150 153 154
3 155 156 157
3 158 159 160
3 161 159 162
3 157 163 161
3 164 165 166
3 167 168 169
3 170 157 161
3 170 162 171
3 171 158 172
3 173 155 157
3 174 175 176
3 177 178 179
3 180 181 177
3 180 175 182
3 183 184 185
3 186 187 188
3 184 180 185
3 185 177 189
3 190 177 179
3 184 174 176
3 191 192 193
3 194 195 196
3 194 197 198
3 199 192 197
3 200 201 202
3 203 204 205
3 206 193 199
3 206 194 207
3 207 196 208
3 209 191 193
3 210 211 212
3 213 214 215
3 216 214 217
3 212 218 216
3 219 220 221
3 222 223 224
3 225 212 216
3 225 217 221
3 221 213 219
3 226 212 227
3 151 10 149
3 228 6 15
3 153 149 145
3 229 154 230
3 231 17 98
3 229 14 150
3 232 233 234
3 235 226 227
3 220 225 221
3 236 237 225
3 238 239 237
3 240 241 242
3 239 235 227
3 225 239 227
3 243 244 245
3 190 246 189
3 184 247 248
3 189 183 185
3 249 118 120
3 249 250 251
3 124 252 253
3 120 253 249
3 254 255 256
3 257 129 258
3 259 260 261
3 257 133 255
3 134 260 262
3 260 136 263
3 138 264 265
3 134 264 140
3 251 133 118
3 264 259 265
3 256 251 250
3 0 266 1
3 3 267 4
3 6 11 7
3 5 4 9
3 11 9 4
3 12 93 13
3 15 94 16
3 18 93 12
3 20 268 21
3 23 269 24
3 24 27 26
3 27 20 22
3 28 270 29
3 31 271 32
3 34 26 22
3 25 26 34
3 23 25 36
3 22 21 38
3 39 272 40
3 42 45 43
3 45 273 46
3 46 273 39
3 47 117 48
3 50 274 51
3 46 41 47
3 43 46 49
3 54 44 43
3 41 40 55
3 56 275 57
3 59 276 60
3 60 276 62
3 63 62 56
3 64 277 65
3 67 278 68
3 70 63 58
3 60 63 70
3 61 60 72
3 71 58 57
3 75 279 76
3 78 280 79
3 79 82 81
3 82 279 75
3 83 91 84
3 86 281 87
3 89 81 75
3 80 81 89
3 78 80 91
3 75 77 92
3 93 5 10
3 6 8 94
3 18 3 5
3 19 12 95
3 17 16 97
3 95 12 14
3 100 282 101
3 92 283 103
3 89 104 84
3 104 89 105
3 107 284 106
3 108 285 109
3 103 284 107
3 89 90 107
3 111 286 112
3 54 53 114
3 47 55 116
3 49 48 114
3 118 141 119
3 119 141 121
3 123 287 124
3 120 119 122
3 125 128 126
3 128 258 129
3 130 288 131
3 133 258 128
3 134 132 131
3 136 135 131
3 138 142 139
3 139 132 134
3 141 118 133
3 130 132 139
3 141 125 127
3 0 2 143
3 145 149 146
3 6 289 148
3 149 10 9
3 146 9 11
3 150 14 13
3 152 228 15
3 150 151 153
3 155 290 156
3 158 162 159
3 161 163 159
3 157 156 163
3 164 291 165
3 167 292 168
3 170 173 157
3 170 161 162
3 171 162 158
3 173 293 155
3 174 294 175
3 177 181 178
3 180 182 181
3 180 176 175
3 183 295 184
3 186 296 187
3 184 176 180
3 185 180 177
3 190 189 177
3 184 248 174
3 191 297 192
3 194 198 195
3 194 199 197
3 199 193 192
3 200 298 201
3 203 299 204
3 206 209 193
3 206 199 194
3 207 194 196
3 209 300 191
3 210 301 211
3 213 217 214
3 216 218 214
3 212 211 218
3 219 302 220
3 222 303 223
3 225 227 212
3 225 216 217
3 221 217 213
3 226 210 212
3 151 13 10
3 228 289 6
3 153 151 149
3 229 150 154
3 231 152 17
3 229 99 14
3 232 304 233
3 235 305 226
3 220 236 225
3 236 238 237
3 238 306 239
3 240 307 241
3 239 306 235
3 225 237 239
3 243 308 244
3 190 309 246
3 184 295 247
3 189 246 183
3 249 251 118
3 249 253 250
3 124 287 252
3 120 124 253
3 254 257 255
3 257 254 129
3 259 262 260
3 257 258 133
3 134 135 260
3 260 135 136
3 138 140 264
3 134 262 264
3 251 255 133
3 264 262 259
3 256 255 251
